<svg width="250" height="208" viewBox="0 0 250 208" fill="none" xmlns="http://www.w3.org/2000/svg">
<g id="Group 171">
<path id="Vector" d="M238.051 128.891C264.557 158.205 187.72 200.45 125.633 200.45C63.5459 200.45 20.5915 167.717 13.2146 128.891C-4.67197 34.7519 165.612 -25.0827 125.633 57.3334C67.3578 177.464 217.176 105.807 238.051 128.891Z" fill="#E6E6E6"/>
<path id="Vector_2" d="M250 0H123.389V152.792H250V0Z" fill="url(#paint0_linear)"/>
<path id="Vector_3" d="M248.437 1.95386H124.953V150.838H248.437V1.95386Z" fill="white"/>
<path id="Vector_4" d="M210.923 34.3881H185.132V36.7327H210.923V34.3881Z" fill="#F9A826"/>
<path id="Vector_5" opacity="0.5" d="M222.646 67.6038H173.018V69.9484H222.646V67.6038Z" fill="#C0BCCF"/>
<path id="Vector_6" opacity="0.5" d="M222.646 75.4192H173.018V77.7638H222.646V75.4192Z" fill="#C0BCCF"/>
<path id="Vector_7" opacity="0.5" d="M210.923 82.8439H185.132V85.1885H210.923V82.8439Z" fill="#F9A826"/>
<path id="Vector_8" opacity="0.5" d="M222.646 116.45H173.018V118.795H222.646V116.45Z" fill="#C0BCCF"/>
<path id="Vector_9" opacity="0.5" d="M222.646 123.875H173.018V126.22H222.646V123.875Z" fill="#C0BCCF"/>
<path id="Vector_10" opacity="0.5" d="M210.923 131.691H185.132V134.035H210.923V131.691Z" fill="#F9A826"/>
<g id="Group" opacity="0.5">
<path id="Vector_11" opacity="0.5" d="M155.516 81.0901L154.473 80.6211C154.489 80.4626 154.496 80.3033 154.494 80.1441C154.501 80.0094 154.501 79.8744 154.494 79.7398C154.391 78.6765 153.713 77.7507 153.234 76.7784C152.796 75.8908 152.517 74.9328 152.412 73.9484C152.284 72.7355 152.412 71.4782 151.967 70.3381C151.605 69.4183 150.889 68.6502 150.123 67.971C149.263 67.164 148.259 66.5268 147.162 66.0931C146.042 65.6888 144.754 65.5857 143.634 65.9981C142.624 66.37 141.845 67.1119 141.094 67.8335C140.547 68.3146 140.065 68.8635 139.658 69.4668C139.199 70.2188 139.003 71.084 138.85 71.937C138.608 73.3028 138.442 74.6808 138.352 76.0648C138.274 77.2191 138.15 78.5289 137.164 79.2364C136.683 79.5821 136.006 79.7762 135.785 80.2997C135.723 80.4569 135.698 80.6265 135.712 80.795C135.706 80.9352 135.717 81.0756 135.743 81.2134C135.757 81.2943 135.773 81.3731 135.793 81.454C135.51 82.1576 135.273 82.8787 135.082 83.6129C134.934 84.1586 134.799 84.6943 134.677 85.2138H135.005H135.179L137.063 85.2583H137.089L139.11 85.3048H139.121L141.005 85.3493H141.051L141.595 85.3877H141.773L149.307 85.5615H149.347L149.848 85.5736H150.024L151.532 85.608L153.756 85.6585H153.772L155.446 85.699H155.624H155.967L155.878 83.9444C156.246 81.2579 155.516 81.0901 155.516 81.0901ZM147.053 80.8758C147.053 82.3636 145.46 84.1849 145.46 84.1849L143.857 82.0018L143.915 81.9169L145.46 84.0192C145.46 84.0192 147.053 82.1999 147.053 80.7101C147.09 80.6343 147.132 80.5614 147.18 80.4918L147.216 80.605C147.155 80.6911 147.101 80.7816 147.053 80.8758V80.8758ZM149.503 86.7137C149.503 86.6389 149.503 86.5621 149.489 86.4873C149.474 86.4125 149.476 86.3458 149.466 86.2731C149.456 86.2003 149.448 86.1295 149.438 86.0568C149.428 85.984 149.414 85.9132 149.4 85.8405C149.385 85.7677 149.371 85.697 149.355 85.6242C149.355 85.5999 149.345 85.5777 149.339 85.5514C149.317 85.4564 149.292 85.3614 149.266 85.2664C149.24 85.1714 149.224 85.1128 149.199 85.038C149.199 85.0036 149.179 84.9692 149.167 84.9369C149.155 84.9045 149.133 84.8277 149.115 84.7732L149.078 84.668C149.062 84.6216 149.046 84.573 149.028 84.5265C148.997 84.4416 148.965 84.3588 148.933 84.2739C148.9 84.189 148.866 84.1061 148.832 84.0232C148.763 83.8534 148.688 83.6856 148.613 83.5158C148.32 82.8609 147.991 82.216 147.687 81.5773C147.525 81.243 147.38 80.9002 147.255 80.5504L147.216 80.6009C147.155 80.6877 147.1 80.7789 147.053 80.8738C147.053 82.3616 145.46 84.1829 145.46 84.1829L143.857 81.9997L142.454 84.0212C142.252 84.1223 142.05 84.4659 141.892 84.9551C141.848 85.0865 141.805 85.232 141.765 85.3836C141.736 85.4867 141.71 85.5858 141.686 85.701C141.672 85.7556 141.66 85.8102 141.647 85.8668L141.611 86.0386V86.0649C141.587 86.1821 141.563 86.3034 141.54 86.4267C141.518 86.55 141.492 86.6915 141.47 86.831C141.453 86.9186 141.439 87.0055 141.427 87.0917C141.399 87.2595 141.375 87.4293 141.35 87.5991C141.336 87.6982 141.322 87.8013 141.31 87.8922L141.261 88.2682C141.364 88.5775 141.48 88.8747 141.599 89.186C141.675 89.3494 141.719 89.5256 141.73 89.7055C144.217 90.3685 146.834 90.3685 149.321 89.7055C149.32 89.6994 149.32 89.6933 149.321 89.6873C149.284 89.5181 149.267 89.345 149.272 89.1718C149.313 88.686 149.381 88.2028 149.474 87.7245C149.504 87.4885 149.517 87.2507 149.513 87.0129V86.928C149.507 86.8512 149.505 86.7825 149.503 86.7158V86.7137ZM149.503 86.7137C149.503 86.6389 149.503 86.5621 149.489 86.4873C149.474 86.4125 149.476 86.3458 149.466 86.2731C149.456 86.2003 149.448 86.1295 149.438 86.0568C149.428 85.984 149.414 85.9132 149.4 85.8405C149.385 85.7677 149.371 85.697 149.355 85.6242C149.355 85.5999 149.345 85.5777 149.339 85.5514C149.317 85.4564 149.292 85.3614 149.266 85.2664C149.24 85.1714 149.224 85.1128 149.199 85.038C149.199 85.0036 149.179 84.9692 149.167 84.9369C149.155 84.9045 149.133 84.8277 149.115 84.7732L149.078 84.668C149.062 84.6216 149.046 84.573 149.028 84.5265C148.997 84.4416 148.965 84.3588 148.933 84.2739C148.9 84.189 148.866 84.1061 148.832 84.0232C148.763 83.8534 148.688 83.6856 148.613 83.5158C148.32 82.8609 147.991 82.216 147.687 81.5773C147.525 81.243 147.38 80.9002 147.255 80.5504L147.216 80.6009C147.155 80.6877 147.1 80.7789 147.053 80.8738C147.053 82.3616 145.46 84.1829 145.46 84.1829L143.857 81.9997L142.454 84.0212C142.252 84.1223 142.05 84.4659 141.892 84.9551C141.848 85.0865 141.805 85.232 141.765 85.3836C141.736 85.4867 141.71 85.5858 141.686 85.701C141.672 85.7556 141.66 85.8102 141.647 85.8668L141.611 86.0386V86.0649C141.587 86.1821 141.563 86.3034 141.54 86.4267C141.518 86.55 141.492 86.6915 141.47 86.831C141.453 86.9186 141.439 87.0055 141.427 87.0917C141.399 87.2595 141.375 87.4293 141.35 87.5991C141.336 87.6982 141.322 87.8013 141.31 87.8922L141.261 88.2682C141.364 88.5775 141.48 88.8747 141.599 89.186C141.675 89.3494 141.719 89.5256 141.73 89.7055C144.217 90.3685 146.834 90.3685 149.321 89.7055C149.32 89.6994 149.32 89.6933 149.321 89.6873C149.284 89.5181 149.267 89.345 149.272 89.1718C149.313 88.686 149.381 88.2028 149.474 87.7245C149.504 87.4885 149.517 87.2507 149.513 87.0129V86.928C149.507 86.8512 149.505 86.7825 149.503 86.7158V86.7137ZM149.503 86.7137C149.503 86.6389 149.503 86.5621 149.489 86.4873C149.474 86.4125 149.476 86.3458 149.466 86.2731C149.456 86.2003 149.448 86.1295 149.438 86.0568C149.428 85.984 149.414 85.9132 149.4 85.8405C149.385 85.7677 149.371 85.697 149.355 85.6242C149.355 85.5999 149.345 85.5777 149.339 85.5514C149.317 85.4564 149.292 85.3614 149.266 85.2664C149.24 85.1714 149.224 85.1128 149.199 85.038C149.199 85.0036 149.179 84.9692 149.167 84.9369C149.155 84.9045 149.133 84.8277 149.115 84.7732L149.078 84.668C149.062 84.6216 149.046 84.573 149.028 84.5265C148.997 84.4416 148.965 84.3588 148.933 84.2739C148.9 84.189 148.866 84.1061 148.832 84.0232C148.763 83.8534 148.688 83.6856 148.613 83.5158C148.32 82.8609 147.991 82.216 147.687 81.5773C147.525 81.243 147.38 80.9002 147.255 80.5504L147.216 80.6009C147.155 80.6877 147.1 80.7789 147.053 80.8738C147.053 82.3616 145.46 84.1829 145.46 84.1829L143.857 81.9997L142.454 84.0212C142.252 84.1223 142.05 84.4659 141.892 84.9551C141.848 85.0865 141.805 85.232 141.765 85.3836C141.736 85.4867 141.71 85.5858 141.686 85.701C141.672 85.7556 141.66 85.8102 141.647 85.8668L141.611 86.0386V86.0649C141.587 86.1821 141.563 86.3034 141.54 86.4267C141.518 86.55 141.492 86.6915 141.47 86.831C141.453 86.9186 141.439 87.0055 141.427 87.0917C141.399 87.2595 141.375 87.4293 141.35 87.5991C141.336 87.6982 141.322 87.8013 141.31 87.8922L141.261 88.2682C141.364 88.5775 141.48 88.8747 141.599 89.186C141.675 89.3494 141.719 89.5256 141.73 89.7055C144.217 90.3685 146.834 90.3685 149.321 89.7055C149.32 89.6994 149.32 89.6933 149.321 89.6873C149.284 89.5181 149.267 89.345 149.272 89.1718C149.313 88.686 149.381 88.2028 149.474 87.7245C149.504 87.4885 149.517 87.2507 149.513 87.0129V86.928C149.507 86.8512 149.505 86.7825 149.503 86.7158V86.7137ZM149.503 86.7137C149.503 86.6389 149.503 86.5621 149.489 86.4873C149.474 86.4125 149.476 86.3458 149.466 86.2731C149.456 86.2003 149.448 86.1295 149.438 86.0568C149.428 85.984 149.414 85.9132 149.4 85.8405C149.385 85.7677 149.371 85.697 149.355 85.6242C149.355 85.5999 149.345 85.5777 149.339 85.5514C149.317 85.4564 149.292 85.3614 149.266 85.2664C149.24 85.1714 149.224 85.1128 149.199 85.038C149.199 85.0036 149.179 84.9692 149.167 84.9369C149.155 84.9045 149.133 84.8277 149.115 84.7732L149.078 84.668C149.062 84.6216 149.046 84.573 149.028 84.5265C148.997 84.4416 148.965 84.3588 148.933 84.2739C148.9 84.189 148.866 84.1061 148.832 84.0232C148.763 83.8534 148.688 83.6856 148.613 83.5158C148.32 82.8609 147.991 82.216 147.687 81.5773C147.525 81.243 147.38 80.9002 147.255 80.5504L147.216 80.6009C147.155 80.6877 147.1 80.7789 147.053 80.8738C147.053 82.3616 145.46 84.1829 145.46 84.1829L143.857 81.9997L142.454 84.0212C142.252 84.1223 142.05 84.4659 141.892 84.9551C141.848 85.0865 141.805 85.232 141.765 85.3836C141.736 85.4867 141.71 85.5858 141.686 85.701C141.672 85.7556 141.66 85.8102 141.647 85.8668L141.611 86.0386V86.0649C141.587 86.1821 141.563 86.3034 141.54 86.4267C141.518 86.55 141.492 86.6915 141.47 86.831C141.453 86.9186 141.439 87.0055 141.427 87.0917C141.399 87.2595 141.375 87.4293 141.35 87.5991C141.336 87.6982 141.322 87.8013 141.31 87.8922L141.261 88.2682C141.364 88.5775 141.48 88.8747 141.599 89.186C141.675 89.3494 141.719 89.5256 141.73 89.7055C144.217 90.3685 146.834 90.3685 149.321 89.7055C149.32 89.6994 149.32 89.6933 149.321 89.6873C149.284 89.5181 149.267 89.345 149.272 89.1718C149.313 88.686 149.381 88.2028 149.474 87.7245C149.504 87.4885 149.517 87.2507 149.513 87.0129V86.928C149.507 86.8512 149.505 86.7825 149.503 86.7158V86.7137Z" fill="url(#paint1_linear)"/>
<path id="Vector_12" opacity="0.5" d="M149.575 72.6141H140.277V78.8806H149.575V72.6141Z" fill="#493545"/>
<path id="Vector_13" opacity="0.5" d="M151.12 79.5254L147.229 85.0075L143.162 84.6538C143.162 84.6538 137.855 85.0055 141.393 80.9404C143.093 78.9857 143.649 77.3564 143.768 76.1941C143.897 74.9367 143.515 74.2211 143.515 74.2211L147.936 73.6915C147.737 74.2872 147.711 74.9275 147.863 75.5371C148.417 77.8334 151.12 79.5254 151.12 79.5254Z" fill="#C77485"/>
<path id="Vector_14" opacity="0.1" d="M147.862 75.5312C147.285 75.9678 146.61 76.2562 145.896 76.3711C145.182 76.486 144.451 76.4239 143.766 76.1902C143.896 74.9328 143.514 74.2172 143.514 74.2172L147.935 73.6876C147.735 74.2827 147.71 74.9222 147.862 75.5312Z" fill="black"/>
<path id="Vector_15" opacity="0.5" d="M145.195 76.2507C147.637 76.2507 149.616 74.2714 149.616 71.8298C149.616 69.3882 147.637 67.4089 145.195 67.4089C142.754 67.4089 140.774 69.3882 140.774 71.8298C140.774 74.2714 142.754 76.2507 145.195 76.2507Z" fill="#C77485"/>
<path id="Vector_16" opacity="0.1" d="M150.958 79.7519L150.855 79.3476L150.766 78.9918L150.635 78.4662L150.61 78.3692L150.59 78.2883C150.59 78.2883 150.695 77.971 150.002 78.0741L149.873 78.0963C149.763 78.1185 149.636 78.1489 149.491 78.1893L149.359 78.2297L149.185 78.2843C148.635 78.4635 148.133 78.7664 147.718 79.1697C147.531 79.3479 147.367 79.5474 147.227 79.764C147.212 79.7842 147.202 79.8024 147.19 79.8186C147.142 79.8937 147.1 79.972 147.063 80.053C147.063 81.6459 145.47 83.5906 145.47 83.5906L143.915 81.3447L143.885 81.3003L143.515 80.7626L143.384 80.5887L143.339 80.5281L142.531 79.4426L142.329 79.1717L142.262 79.0807L142.163 78.9493L141.93 78.6401L141.021 79.1717L139.808 79.8792L139.1 84.478V84.6053L139.123 84.9854L139.27 87.4838V87.5182L139.011 88.5532L139.05 88.5734C139.66 88.9027 140.296 89.1839 140.95 89.4143L141.122 89.475C141.324 89.5417 141.514 89.6023 141.712 89.6609C141.719 89.6909 141.725 89.7213 141.728 89.7519C141.728 89.7236 141.728 89.6933 141.728 89.665C144.209 90.3738 146.838 90.3738 149.319 89.665L149.365 89.6508C149.48 89.6185 149.598 89.5841 149.711 89.5457L149.895 89.4871C150.394 89.3203 150.882 89.1245 151.358 88.9009L151.528 85.2825L151.649 82.6728V82.5232L150.958 79.7519Z" fill="black"/>
<path id="Vector_17" opacity="0.5" d="M149.503 86.473C149.503 86.3922 149.503 86.3113 149.489 86.2305C149.475 86.1496 149.477 86.0789 149.467 86.0021C149.457 85.9252 149.449 85.8484 149.438 85.7716C149.428 85.6948 149.414 85.618 149.4 85.5412C149.386 85.4643 149.372 85.3875 149.356 85.3107C149.356 85.2844 149.346 85.2602 149.339 85.2339C149.317 85.1328 149.293 85.0318 149.267 84.9287C149.24 84.8256 149.224 84.7649 149.2 84.6841C149.2 84.6477 149.18 84.6113 149.168 84.5769C149.155 84.5426 149.133 84.4597 149.115 84.4011L149.079 84.2879C149.062 84.2373 149.046 84.1868 149.028 84.1363C148.998 84.0453 148.965 83.9564 148.933 83.8654C148.901 83.7744 148.866 83.6855 148.832 83.5965C148.763 83.4146 148.689 83.2347 148.614 83.0548C148.321 82.3554 147.991 81.6661 147.688 80.9828C147.525 80.6246 147.381 80.2583 147.255 79.8852L147.217 79.9398C147.155 80.0328 147.101 80.13 147.053 80.2308C147.053 81.8217 145.46 83.7684 145.46 83.7684L143.857 81.4336L142.454 83.5905C142.252 83.6976 142.05 84.0655 141.892 84.5891C141.848 84.7306 141.806 84.8842 141.765 85.0479C141.737 85.1571 141.711 85.2723 141.686 85.3875C141.672 85.4462 141.66 85.5048 141.648 85.5654L141.611 85.7494V85.7777C141.587 85.903 141.563 86.0324 141.541 86.1638C141.519 86.2952 141.492 86.4468 141.47 86.5903C141.454 86.6833 141.44 86.7763 141.428 86.8692C141.399 87.0492 141.375 87.2311 141.351 87.411C141.337 87.5161 141.322 87.6131 141.31 87.7243L141.262 88.1286C141.365 88.4601 141.48 88.7876 141.599 89.109C141.676 89.2851 141.72 89.4733 141.731 89.6649C144.211 90.3737 146.841 90.3737 149.321 89.6649C149.32 89.6582 149.32 89.6514 149.321 89.6447C149.284 89.4632 149.268 89.278 149.273 89.0928V89.0928C149.314 88.5742 149.381 88.0581 149.475 87.5464C149.505 87.2942 149.518 87.0403 149.513 86.7864V86.6954C149.507 86.6186 149.505 86.5458 149.503 86.473ZM149.503 86.473C149.503 86.3922 149.503 86.3113 149.489 86.2305C149.475 86.1496 149.477 86.0789 149.467 86.0021C149.457 85.9252 149.449 85.8484 149.438 85.7716C149.428 85.6948 149.414 85.618 149.4 85.5412C149.386 85.4643 149.372 85.3875 149.356 85.3107C149.356 85.2844 149.346 85.2602 149.339 85.2339C149.317 85.1328 149.293 85.0318 149.267 84.9287C149.24 84.8256 149.224 84.7649 149.2 84.6841C149.2 84.6477 149.18 84.6113 149.168 84.5769C149.155 84.5426 149.133 84.4597 149.115 84.4011L149.079 84.2879C149.062 84.2373 149.046 84.1868 149.028 84.1363C148.998 84.0453 148.965 83.9564 148.933 83.8654C148.901 83.7744 148.866 83.6855 148.832 83.5965C148.763 83.4146 148.689 83.2347 148.614 83.0548C148.321 82.3554 147.991 81.6661 147.688 80.9828C147.525 80.6246 147.381 80.2583 147.255 79.8852L147.217 79.9398C147.155 80.0328 147.101 80.13 147.053 80.2308C147.053 81.8217 145.46 83.7684 145.46 83.7684L143.857 81.4336L142.454 83.5905C142.252 83.6976 142.05 84.0655 141.892 84.5891C141.848 84.7306 141.806 84.8842 141.765 85.0479C141.737 85.1571 141.711 85.2723 141.686 85.3875C141.672 85.4462 141.66 85.5048 141.648 85.5654L141.611 85.7494V85.7777C141.587 85.903 141.563 86.0324 141.541 86.1638C141.519 86.2952 141.492 86.4468 141.47 86.5903C141.454 86.6833 141.44 86.7763 141.428 86.8692C141.399 87.0492 141.375 87.2311 141.351 87.411C141.337 87.5161 141.322 87.6131 141.31 87.7243L141.262 88.1286C141.365 88.4601 141.48 88.7876 141.599 89.109C141.676 89.2851 141.72 89.4733 141.731 89.6649C144.211 90.3737 146.841 90.3737 149.321 89.6649C149.32 89.6582 149.32 89.6514 149.321 89.6447C149.284 89.4632 149.268 89.278 149.273 89.0928V89.0928C149.314 88.5742 149.381 88.0581 149.475 87.5464C149.505 87.2942 149.518 87.0403 149.513 86.7864V86.6954C149.507 86.6186 149.505 86.5458 149.503 86.473ZM149.503 86.473C149.503 86.3922 149.503 86.3113 149.489 86.2305C149.475 86.1496 149.477 86.0789 149.467 86.0021C149.457 85.9252 149.449 85.8484 149.438 85.7716C149.428 85.6948 149.414 85.618 149.4 85.5412C149.386 85.4643 149.372 85.3875 149.356 85.3107C149.356 85.2844 149.346 85.2602 149.339 85.2339C149.317 85.1328 149.293 85.0318 149.267 84.9287C149.24 84.8256 149.224 84.7649 149.2 84.6841C149.2 84.6477 149.18 84.6113 149.168 84.5769C149.155 84.5426 149.133 84.4597 149.115 84.4011L149.079 84.2879C149.062 84.2373 149.046 84.1868 149.028 84.1363C148.998 84.0453 148.965 83.9564 148.933 83.8654C148.901 83.7744 148.866 83.6855 148.832 83.5965C148.763 83.4146 148.689 83.2347 148.614 83.0548C148.321 82.3554 147.991 81.6661 147.688 80.9828C147.525 80.6246 147.381 80.2583 147.255 79.8852L147.217 79.9398C147.155 80.0328 147.101 80.13 147.053 80.2308C147.053 81.8217 145.46 83.7684 145.46 83.7684L143.857 81.4336L142.454 83.5905C142.252 83.6976 142.05 84.0655 141.892 84.5891C141.848 84.7306 141.806 84.8842 141.765 85.0479C141.737 85.1571 141.711 85.2723 141.686 85.3875C141.672 85.4462 141.66 85.5048 141.648 85.5654L141.611 85.7494V85.7777C141.587 85.903 141.563 86.0324 141.541 86.1638C141.519 86.2952 141.492 86.4468 141.47 86.5903C141.454 86.6833 141.44 86.7763 141.428 86.8692C141.399 87.0492 141.375 87.2311 141.351 87.411C141.337 87.5161 141.322 87.6131 141.31 87.7243L141.262 88.1286C141.365 88.4601 141.48 88.7876 141.599 89.109C141.676 89.2851 141.72 89.4733 141.731 89.6649C144.211 90.3737 146.841 90.3737 149.321 89.6649C149.32 89.6582 149.32 89.6514 149.321 89.6447C149.284 89.4632 149.268 89.278 149.273 89.0928V89.0928C149.314 88.5742 149.381 88.0581 149.475 87.5464C149.505 87.2942 149.518 87.0403 149.513 86.7864V86.6954C149.507 86.6186 149.505 86.5458 149.503 86.473ZM151.646 82.6788L150.924 79.7983L150.801 79.305L150.767 79.1696L150.591 78.4661C150.591 78.4601 150.591 78.454 150.591 78.4479C150.595 78.4169 150.59 78.3853 150.577 78.357C150.55 78.3044 150.484 78.2498 150.328 78.2357C150.269 78.2315 150.209 78.2315 150.15 78.2357V78.2357C149.974 78.2531 149.801 78.2856 149.631 78.3327C149.548 78.355 149.459 78.3792 149.364 78.4095L149.19 78.4641H149.174C148.708 78.6169 148.276 78.857 147.9 79.1716C147.652 79.3785 147.434 79.6195 147.253 79.8872L147.215 79.9418C147.153 80.0348 147.099 80.1321 147.051 80.2329C147.051 81.8237 145.458 83.7704 145.458 83.7704L143.855 81.4356L143.764 81.3042L143.748 81.282L143.516 80.9404L143.34 80.7059L143.293 80.6452L142.465 79.5395L142.202 79.1817V79.1696L142.111 79.0463L141.937 78.8158L141.331 79.1696L139.814 80.053L139.115 84.6032V84.6517L139.135 84.9832L139.285 87.5161V87.6596L139.056 88.5713C139.667 88.9006 140.302 89.1818 140.957 89.4122L141.128 89.4729C141.331 89.5396 141.521 89.6002 141.719 89.6588C141.726 89.6888 141.731 89.7191 141.735 89.7498C141.735 89.7215 141.735 89.6912 141.735 89.6629C144.215 90.3717 146.845 90.3717 149.325 89.6629L149.372 89.6487C149.487 89.6164 149.604 89.582 149.717 89.5436L149.901 89.485C150.4 89.3182 150.889 89.1224 151.365 88.8988L151.533 85.2844L151.654 82.7031L151.646 82.6788ZM141.704 89.6588C141.712 89.6888 141.717 89.7191 141.721 89.7498C141.721 89.7215 141.721 89.6912 141.721 89.6629L141.704 89.6588ZM149.503 86.473C149.503 86.3922 149.503 86.3113 149.489 86.2305C149.475 86.1496 149.477 86.0789 149.467 86.0021C149.457 85.9252 149.449 85.8484 149.438 85.7716C149.428 85.6948 149.414 85.618 149.4 85.5412C149.386 85.4643 149.372 85.3875 149.356 85.3107C149.356 85.2844 149.346 85.2602 149.339 85.2339C149.317 85.1328 149.293 85.0318 149.267 84.9287C149.24 84.8256 149.224 84.7649 149.2 84.6841C149.2 84.6477 149.18 84.6113 149.168 84.5769C149.155 84.5426 149.133 84.4597 149.115 84.4011L149.079 84.2879C149.062 84.2373 149.046 84.1868 149.028 84.1363C148.998 84.0453 148.965 83.9564 148.933 83.8654C148.901 83.7744 148.866 83.6855 148.832 83.5965C148.763 83.4146 148.689 83.2347 148.614 83.0548C148.321 82.3554 147.991 81.6661 147.688 80.9828C147.525 80.6246 147.381 80.2583 147.255 79.8852L147.217 79.9398C147.155 80.0328 147.101 80.13 147.053 80.2308C147.053 81.8217 145.46 83.7684 145.46 83.7684L143.857 81.4336L142.454 83.5905C142.252 83.6976 142.05 84.0655 141.892 84.5891C141.848 84.7306 141.806 84.8842 141.765 85.0479C141.737 85.1571 141.711 85.2723 141.686 85.3875C141.672 85.4462 141.66 85.5048 141.648 85.5654L141.611 85.7494V85.7777C141.587 85.903 141.563 86.0324 141.541 86.1638C141.519 86.2952 141.492 86.4468 141.47 86.5903C141.454 86.6833 141.44 86.7763 141.428 86.8692C141.399 87.0492 141.375 87.2311 141.351 87.411C141.337 87.5161 141.322 87.6131 141.31 87.7243L141.262 88.1286C141.365 88.4601 141.48 88.7876 141.599 89.109C141.676 89.2851 141.72 89.4733 141.731 89.6649C144.211 90.3737 146.841 90.3737 149.321 89.6649C149.32 89.6582 149.32 89.6514 149.321 89.6447C149.284 89.4632 149.268 89.278 149.273 89.0928V89.0928C149.314 88.5742 149.381 88.0581 149.475 87.5464C149.505 87.2942 149.518 87.0403 149.513 86.7864V86.6954C149.507 86.6186 149.505 86.5458 149.503 86.473ZM149.503 86.473C149.503 86.3922 149.503 86.3113 149.489 86.2305C149.475 86.1496 149.477 86.0789 149.467 86.0021C149.457 85.9252 149.449 85.8484 149.438 85.7716C149.428 85.6948 149.414 85.618 149.4 85.5412C149.386 85.4643 149.372 85.3875 149.356 85.3107C149.356 85.2844 149.346 85.2602 149.339 85.2339C149.317 85.1328 149.293 85.0318 149.267 84.9287C149.24 84.8256 149.224 84.7649 149.2 84.6841C149.2 84.6477 149.18 84.6113 149.168 84.5769C149.155 84.5426 149.133 84.4597 149.115 84.4011L149.079 84.2879C149.062 84.2373 149.046 84.1868 149.028 84.1363C148.998 84.0453 148.965 83.9564 148.933 83.8654C148.901 83.7744 148.866 83.6855 148.832 83.5965C148.763 83.4146 148.689 83.2347 148.614 83.0548C148.321 82.3554 147.991 81.6661 147.688 80.9828C147.525 80.6246 147.381 80.2583 147.255 79.8852L147.217 79.9398C147.155 80.0328 147.101 80.13 147.053 80.2308C147.053 81.8217 145.46 83.7684 145.46 83.7684L143.857 81.4336L142.454 83.5905C142.252 83.6976 142.05 84.0655 141.892 84.5891C141.848 84.7306 141.806 84.8842 141.765 85.0479C141.737 85.1571 141.711 85.2723 141.686 85.3875C141.672 85.4462 141.66 85.5048 141.648 85.5654L141.611 85.7494V85.7777C141.587 85.903 141.563 86.0324 141.541 86.1638C141.519 86.2952 141.492 86.4468 141.47 86.5903C141.454 86.6833 141.44 86.7763 141.428 86.8692C141.399 87.0492 141.375 87.2311 141.351 87.411C141.337 87.5161 141.322 87.6131 141.31 87.7243L141.262 88.1286C141.365 88.4601 141.48 88.7876 141.599 89.109C141.676 89.2851 141.72 89.4733 141.731 89.6649C144.211 90.3737 146.841 90.3737 149.321 89.6649C149.32 89.6582 149.32 89.6514 149.321 89.6447C149.284 89.4632 149.268 89.278 149.273 89.0928V89.0928C149.314 88.5742 149.381 88.0581 149.475 87.5464C149.505 87.2942 149.518 87.0403 149.513 86.7864V86.6954C149.507 86.6186 149.505 86.5458 149.503 86.473ZM149.503 86.473C149.503 86.3922 149.503 86.3113 149.489 86.2305C149.475 86.1496 149.477 86.0789 149.467 86.0021C149.457 85.9252 149.449 85.8484 149.438 85.7716C149.428 85.6948 149.414 85.618 149.4 85.5412C149.386 85.4643 149.372 85.3875 149.356 85.3107C149.356 85.2844 149.346 85.2602 149.339 85.2339C149.317 85.1328 149.293 85.0318 149.267 84.9287C149.24 84.8256 149.224 84.7649 149.2 84.6841C149.2 84.6477 149.18 84.6113 149.168 84.5769C149.155 84.5426 149.133 84.4597 149.115 84.4011L149.079 84.2879C149.062 84.2373 149.046 84.1868 149.028 84.1363C148.998 84.0453 148.965 83.9564 148.933 83.8654C148.901 83.7744 148.866 83.6855 148.832 83.5965C148.763 83.4146 148.689 83.2347 148.614 83.0548C148.321 82.3554 147.991 81.6661 147.688 80.9828C147.525 80.6246 147.381 80.2583 147.255 79.8852L147.217 79.9398C147.155 80.0328 147.101 80.13 147.053 80.2308C147.053 81.8217 145.46 83.7684 145.46 83.7684L143.857 81.4336L142.454 83.5905C142.252 83.6976 142.05 84.0655 141.892 84.5891C141.848 84.7306 141.806 84.8842 141.765 85.0479C141.737 85.1571 141.711 85.2723 141.686 85.3875C141.672 85.4462 141.66 85.5048 141.648 85.5654L141.611 85.7494V85.7777C141.587 85.903 141.563 86.0324 141.541 86.1638C141.519 86.2952 141.492 86.4468 141.47 86.5903C141.454 86.6833 141.44 86.7763 141.428 86.8692C141.399 87.0492 141.375 87.2311 141.351 87.411C141.337 87.5161 141.322 87.6131 141.31 87.7243L141.262 88.1286C141.365 88.4601 141.48 88.7876 141.599 89.109C141.676 89.2851 141.72 89.4733 141.731 89.6649C144.211 90.3737 146.841 90.3737 149.321 89.6649C149.32 89.6582 149.32 89.6514 149.321 89.6447C149.284 89.4632 149.268 89.278 149.273 89.0928V89.0928C149.314 88.5742 149.381 88.0581 149.475 87.5464C149.505 87.2942 149.518 87.0403 149.513 86.7864V86.6954C149.507 86.6186 149.505 86.5458 149.503 86.473ZM149.503 86.473C149.503 86.3922 149.503 86.3113 149.489 86.2305C149.475 86.1496 149.477 86.0789 149.467 86.0021C149.457 85.9252 149.449 85.8484 149.438 85.7716C149.428 85.6948 149.414 85.618 149.4 85.5412C149.386 85.4643 149.372 85.3875 149.356 85.3107C149.356 85.2844 149.346 85.2602 149.339 85.2339C149.317 85.1328 149.293 85.0318 149.267 84.9287C149.24 84.8256 149.224 84.7649 149.2 84.6841C149.2 84.6477 149.18 84.6113 149.168 84.5769C149.155 84.5426 149.133 84.4597 149.115 84.4011L149.079 84.2879C149.062 84.2373 149.046 84.1868 149.028 84.1363C148.998 84.0453 148.965 83.9564 148.933 83.8654C148.901 83.7744 148.866 83.6855 148.832 83.5965C148.763 83.4146 148.689 83.2347 148.614 83.0548C148.321 82.3554 147.991 81.6661 147.688 80.9828C147.525 80.6246 147.381 80.2583 147.255 79.8852L147.217 79.9398C147.155 80.0328 147.101 80.13 147.053 80.2308C147.053 81.8217 145.46 83.7684 145.46 83.7684L143.857 81.4336L142.454 83.5905C142.252 83.6976 142.05 84.0655 141.892 84.5891C141.848 84.7306 141.806 84.8842 141.765 85.0479C141.737 85.1571 141.711 85.2723 141.686 85.3875C141.672 85.4462 141.66 85.5048 141.648 85.5654L141.611 85.7494V85.7777C141.587 85.903 141.563 86.0324 141.541 86.1638C141.519 86.2952 141.492 86.4468 141.47 86.5903C141.454 86.6833 141.44 86.7763 141.428 86.8692C141.399 87.0492 141.375 87.2311 141.351 87.411C141.337 87.5161 141.322 87.6131 141.31 87.7243L141.262 88.1286C141.365 88.4601 141.48 88.7876 141.599 89.109C141.676 89.2851 141.72 89.4733 141.731 89.6649C144.211 90.3737 146.841 90.3737 149.321 89.6649C149.32 89.6582 149.32 89.6514 149.321 89.6447C149.284 89.4632 149.268 89.278 149.273 89.0928V89.0928C149.314 88.5742 149.381 88.0581 149.475 87.5464C149.505 87.2942 149.518 87.0403 149.513 86.7864V86.6954C149.507 86.6186 149.505 86.5458 149.503 86.473ZM149.503 86.473C149.503 86.3922 149.503 86.3113 149.489 86.2305C149.475 86.1496 149.477 86.0789 149.467 86.0021C149.457 85.9252 149.449 85.8484 149.438 85.7716C149.428 85.6948 149.414 85.618 149.4 85.5412C149.386 85.4643 149.372 85.3875 149.356 85.3107C149.356 85.2844 149.346 85.2602 149.339 85.2339C149.317 85.1328 149.293 85.0318 149.267 84.9287C149.24 84.8256 149.224 84.7649 149.2 84.6841C149.2 84.6477 149.18 84.6113 149.168 84.5769C149.155 84.5426 149.133 84.4597 149.115 84.4011L149.079 84.2879C149.062 84.2373 149.046 84.1868 149.028 84.1363C148.998 84.0453 148.965 83.9564 148.933 83.8654C148.901 83.7744 148.866 83.6855 148.832 83.5965C148.763 83.4146 148.689 83.2347 148.614 83.0548C148.321 82.3554 147.991 81.6661 147.688 80.9828C147.525 80.6246 147.381 80.2583 147.255 79.8852L147.217 79.9398C147.155 80.0328 147.101 80.13 147.053 80.2308C147.053 81.8217 145.46 83.7684 145.46 83.7684L143.857 81.4336L142.454 83.5905C142.252 83.6976 142.05 84.0655 141.892 84.5891C141.848 84.7306 141.806 84.8842 141.765 85.0479C141.737 85.1571 141.711 85.2723 141.686 85.3875C141.672 85.4462 141.66 85.5048 141.648 85.5654L141.611 85.7494V85.7777C141.587 85.903 141.563 86.0324 141.541 86.1638C141.519 86.2952 141.492 86.4468 141.47 86.5903C141.454 86.6833 141.44 86.7763 141.428 86.8692C141.399 87.0492 141.375 87.2311 141.351 87.411C141.337 87.5161 141.322 87.6131 141.31 87.7243L141.262 88.1286C141.365 88.4601 141.48 88.7876 141.599 89.109C141.676 89.2851 141.72 89.4733 141.731 89.6649C144.211 90.3737 146.841 90.3737 149.321 89.6649C149.32 89.6582 149.32 89.6514 149.321 89.6447C149.284 89.4632 149.268 89.278 149.273 89.0928V89.0928C149.314 88.5742 149.381 88.0581 149.475 87.5464C149.505 87.2942 149.518 87.0403 149.513 86.7864V86.6954C149.507 86.6186 149.505 86.5458 149.503 86.473ZM149.503 86.473C149.503 86.3922 149.503 86.3113 149.489 86.2305C149.475 86.1496 149.477 86.0789 149.467 86.0021C149.457 85.9252 149.449 85.8484 149.438 85.7716C149.428 85.6948 149.414 85.618 149.4 85.5412C149.386 85.4643 149.372 85.3875 149.356 85.3107C149.356 85.2844 149.346 85.2602 149.339 85.2339C149.317 85.1328 149.293 85.0318 149.267 84.9287C149.24 84.8256 149.224 84.7649 149.2 84.6841C149.2 84.6477 149.18 84.6113 149.168 84.5769C149.155 84.5426 149.133 84.4597 149.115 84.4011L149.079 84.2879C149.062 84.2373 149.046 84.1868 149.028 84.1363C148.998 84.0453 148.965 83.9564 148.933 83.8654C148.901 83.7744 148.866 83.6855 148.832 83.5965C148.763 83.4146 148.689 83.2347 148.614 83.0548C148.321 82.3554 147.991 81.6661 147.688 80.9828C147.525 80.6246 147.381 80.2583 147.255 79.8852L147.217 79.9398C147.155 80.0328 147.101 80.13 147.053 80.2308C147.053 81.8217 145.46 83.7684 145.46 83.7684L143.857 81.4336L142.454 83.5905C142.252 83.6976 142.05 84.0655 141.892 84.5891C141.848 84.7306 141.806 84.8842 141.765 85.0479C141.737 85.1571 141.711 85.2723 141.686 85.3875C141.672 85.4462 141.66 85.5048 141.648 85.5654L141.611 85.7494V85.7777C141.587 85.903 141.563 86.0324 141.541 86.1638C141.519 86.2952 141.492 86.4468 141.47 86.5903C141.454 86.6833 141.44 86.7763 141.428 86.8692C141.399 87.0492 141.375 87.2311 141.351 87.411C141.337 87.5161 141.322 87.6131 141.31 87.7243L141.262 88.1286C141.365 88.4601 141.48 88.7876 141.599 89.109C141.676 89.2851 141.72 89.4733 141.731 89.6649C144.211 90.3737 146.841 90.3737 149.321 89.6649C149.32 89.6582 149.32 89.6514 149.321 89.6447C149.284 89.4632 149.268 89.278 149.273 89.0928V89.0928C149.314 88.5742 149.381 88.0581 149.475 87.5464C149.505 87.2942 149.518 87.0403 149.513 86.7864V86.6954C149.507 86.6186 149.505 86.5458 149.503 86.473ZM149.503 86.473C149.503 86.3922 149.503 86.3113 149.489 86.2305C149.475 86.1496 149.477 86.0789 149.467 86.0021C149.457 85.9252 149.449 85.8484 149.438 85.7716C149.428 85.6948 149.414 85.618 149.4 85.5412C149.386 85.4643 149.372 85.3875 149.356 85.3107C149.356 85.2844 149.346 85.2602 149.339 85.2339C149.317 85.1328 149.293 85.0318 149.267 84.9287C149.24 84.8256 149.224 84.7649 149.2 84.6841C149.2 84.6477 149.18 84.6113 149.168 84.5769C149.155 84.5426 149.133 84.4597 149.115 84.4011L149.079 84.2879C149.062 84.2373 149.046 84.1868 149.028 84.1363C148.998 84.0453 148.965 83.9564 148.933 83.8654C148.901 83.7744 148.866 83.6855 148.832 83.5965C148.763 83.4146 148.689 83.2347 148.614 83.0548C148.321 82.3554 147.991 81.6661 147.688 80.9828C147.525 80.6246 147.381 80.2583 147.255 79.8852L147.217 79.9398C147.155 80.0328 147.101 80.13 147.053 80.2308C147.053 81.8217 145.46 83.7684 145.46 83.7684L143.857 81.4336L142.454 83.5905C142.252 83.6976 142.05 84.0655 141.892 84.5891C141.848 84.7306 141.806 84.8842 141.765 85.0479C141.737 85.1571 141.711 85.2723 141.686 85.3875C141.672 85.4462 141.66 85.5048 141.648 85.5654L141.611 85.7494V85.7777C141.587 85.903 141.563 86.0324 141.541 86.1638C141.519 86.2952 141.492 86.4468 141.47 86.5903C141.454 86.6833 141.44 86.7763 141.428 86.8692C141.399 87.0492 141.375 87.2311 141.351 87.411C141.337 87.5161 141.322 87.6131 141.31 87.7243L141.262 88.1286C141.365 88.4601 141.48 88.7876 141.599 89.109C141.676 89.2851 141.72 89.4733 141.731 89.6649C144.211 90.3737 146.841 90.3737 149.321 89.6649C149.32 89.6582 149.32 89.6514 149.321 89.6447C149.284 89.4632 149.268 89.278 149.273 89.0928V89.0928C149.314 88.5742 149.381 88.0581 149.475 87.5464C149.505 87.2942 149.518 87.0403 149.513 86.7864V86.6954C149.507 86.6186 149.505 86.5458 149.503 86.473ZM149.503 86.473C149.503 86.3922 149.503 86.3113 149.489 86.2305C149.475 86.1496 149.477 86.0789 149.467 86.0021C149.457 85.9252 149.449 85.8484 149.438 85.7716C149.428 85.6948 149.414 85.618 149.4 85.5412C149.386 85.4643 149.372 85.3875 149.356 85.3107C149.356 85.2844 149.346 85.2602 149.339 85.2339C149.317 85.1328 149.293 85.0318 149.267 84.9287C149.24 84.8256 149.224 84.7649 149.2 84.6841C149.2 84.6477 149.18 84.6113 149.168 84.5769C149.155 84.5426 149.133 84.4597 149.115 84.4011L149.079 84.2879C149.062 84.2373 149.046 84.1868 149.028 84.1363C148.998 84.0453 148.965 83.9564 148.933 83.8654C148.901 83.7744 148.866 83.6855 148.832 83.5965C148.763 83.4146 148.689 83.2347 148.614 83.0548C148.321 82.3554 147.991 81.6661 147.688 80.9828C147.525 80.6246 147.381 80.2583 147.255 79.8852L147.217 79.9398C147.155 80.0328 147.101 80.13 147.053 80.2308C147.053 81.8217 145.46 83.7684 145.46 83.7684L143.857 81.4336L142.454 83.5905C142.252 83.6976 142.05 84.0655 141.892 84.5891C141.848 84.7306 141.806 84.8842 141.765 85.0479C141.737 85.1571 141.711 85.2723 141.686 85.3875C141.672 85.4462 141.66 85.5048 141.648 85.5654L141.611 85.7494V85.7777C141.587 85.903 141.563 86.0324 141.541 86.1638C141.519 86.2952 141.492 86.4468 141.47 86.5903C141.454 86.6833 141.44 86.7763 141.428 86.8692C141.399 87.0492 141.375 87.2311 141.351 87.411C141.337 87.5161 141.322 87.6131 141.31 87.7243L141.262 88.1286C141.365 88.4601 141.48 88.7876 141.599 89.109C141.676 89.2851 141.72 89.4733 141.731 89.6649C144.211 90.3737 146.841 90.3737 149.321 89.6649C149.32 89.6582 149.32 89.6514 149.321 89.6447C149.284 89.4632 149.268 89.278 149.273 89.0928V89.0928C149.314 88.5742 149.381 88.0581 149.475 87.5464C149.505 87.2942 149.518 87.0403 149.513 86.7864V86.6954C149.507 86.6186 149.505 86.5458 149.503 86.473Z" fill="white"/>
<path id="Vector_18" opacity="0.1" d="M143.886 81.2983L143.75 81.2801C143.546 81.2524 143.343 81.2119 143.144 81.1588L143.069 81.1386C142.576 80.9991 142.036 80.7484 141.915 80.3078C141.879 80.1659 141.883 80.0168 141.927 79.8772C141.995 79.6367 142.087 79.4037 142.202 79.1818V79.1697C142.217 79.1385 142.234 79.1081 142.252 79.0787C142.419 78.7527 142.671 78.4781 142.982 78.2843L142.739 78.3227L140.686 78.6563L137.502 79.1697C137.502 79.1697 136.936 79.0565 136.166 81.179C136.166 81.2053 136.147 81.2295 136.139 81.2578C135.953 81.7773 135.757 82.4262 135.555 83.2368C135.416 83.7988 135.288 84.3506 135.171 84.8863C135.137 85.048 135.102 85.2077 135.07 85.3654C135.435 85.795 135.827 86.2002 136.245 86.5783L136.311 86.6409C137.129 87.3817 138.033 88.0217 139.004 88.5471L139.042 88.5673C139.653 88.8967 140.288 89.1778 140.942 89.4083L141.114 89.4689C141.151 89.0949 141.191 88.6805 141.239 88.256C141.239 88.2136 141.239 88.1711 141.256 88.1287L141.304 87.7244C141.316 87.6213 141.33 87.5223 141.345 87.4111C141.369 87.2312 141.393 87.0492 141.421 86.8693C141.434 86.7764 141.448 86.6834 141.464 86.5904C141.486 86.4469 141.51 86.3033 141.535 86.1639C141.559 86.0244 141.581 85.9031 141.605 85.7778V85.7495L141.642 85.5655C141.654 85.5049 141.666 85.4462 141.68 85.3876C141.704 85.2724 141.731 85.1572 141.759 85.048C141.799 84.8843 141.842 84.7307 141.886 84.5892C142.048 84.0656 142.236 83.6977 142.448 83.5906L143.851 81.4337L143.91 81.3427L143.936 81.3023L143.886 81.2983Z" fill="black"/>
<path id="Vector_19" opacity="0.1" d="M141.332 66.9804C141.13 67.2594 141.146 67.6435 141.055 67.9911C140.839 68.7815 139.982 69.2768 139.786 70.0732C139.671 70.5381 139.804 71.0314 139.725 71.5044C139.582 72.3756 138.785 72.9659 138.341 73.728C138.115 74.1206 137.981 74.5591 137.95 75.0107C137.918 75.4623 137.988 75.9153 138.157 76.3356C138.261 76.5476 138.347 76.7681 138.413 76.9946C138.464 77.3322 138.443 77.6767 138.351 78.0053C138.199 78.725 138.043 79.5174 138.391 80.1662C138.684 80.7141 139.293 81.0355 139.905 81.1365C140.524 81.2064 141.149 81.1778 141.759 81.0516C142.428 80.9485 143.113 80.8293 143.695 80.4856L141.506 75.2016C141.286 74.6679 141.059 74.1161 141.061 73.538C141.079 73.1115 141.172 72.6914 141.334 72.2968C141.758 71.1535 142.373 70.0905 143.154 69.1535C143.471 69.5214 143.447 70.0813 143.711 70.4896C143.945 70.7915 144.257 71.0242 144.613 71.1628C145.65 71.6688 146.716 72.1143 147.805 72.4969C147.873 72.5055 147.938 72.5308 147.995 72.5706C148.051 72.6104 148.096 72.6634 148.127 72.725C148.158 72.7866 148.173 72.8548 148.171 72.9236C148.169 72.9924 148.15 73.0597 148.116 73.1195L147.291 76.5236C147.11 77.2736 146.95 78.1408 147.417 78.7472C147.884 79.3536 148.937 79.6407 148.943 80.423C148.934 80.5468 148.934 80.6711 148.943 80.7949C148.998 81.1608 149.432 81.3367 149.802 81.3548C150.409 81.3668 151.001 81.1626 151.472 80.7786C151.942 80.3947 152.261 79.8559 152.371 79.2586C152.573 77.9204 151.688 76.6874 151.318 75.3835C150.696 73.1903 151.52 70.617 150.297 68.6906C149.307 67.128 147.502 66.7035 145.788 66.5094C144.585 66.3679 142.179 65.8626 141.332 66.9804Z" fill="black"/>
<path id="Vector_20" opacity="0.5" d="M141.332 66.7783C141.13 67.0572 141.146 67.4413 141.055 67.789C140.839 68.5794 139.982 69.0746 139.786 69.8711C139.671 70.336 139.804 70.8292 139.725 71.3023C139.582 72.1735 138.785 72.7637 138.341 73.5258C138.115 73.9184 137.981 74.357 137.95 74.8086C137.918 75.2602 137.988 75.7131 138.157 76.1335C138.261 76.3455 138.347 76.5659 138.413 76.7925C138.464 77.13 138.443 77.4745 138.351 77.8032C138.199 78.5228 138.043 79.3152 138.391 79.9641C138.684 80.5119 139.293 80.8333 139.905 80.9344C140.524 81.0043 141.149 80.9756 141.759 80.8495C142.428 80.7464 143.113 80.6271 143.695 80.2835L141.506 74.9995C141.286 74.4658 141.059 73.9139 141.061 73.3358C141.079 72.9093 141.172 72.4893 141.334 72.0946C141.758 70.9513 142.373 69.8884 143.154 68.9513C143.471 69.3192 143.447 69.8792 143.711 70.2875C143.945 70.5894 144.257 70.8221 144.613 70.9606C145.65 71.4666 146.716 71.9121 147.805 72.2948C147.873 72.3033 147.938 72.3286 147.995 72.3684C148.051 72.4082 148.096 72.4612 148.127 72.5228C148.158 72.5844 148.173 72.6526 148.171 72.7215C148.169 72.7903 148.15 72.8576 148.116 72.9174L147.291 76.3215C147.11 77.0714 146.95 77.9386 147.417 78.545C147.884 79.1515 148.937 79.4385 148.943 80.2208C148.934 80.3447 148.934 80.4689 148.943 80.5928C148.998 80.9586 149.432 81.1345 149.802 81.1527C150.409 81.1647 151.001 80.9605 151.472 80.5765C151.942 80.1925 152.261 79.6538 152.371 79.0565C152.573 77.7183 151.688 76.4852 151.318 75.1814C150.696 72.9881 151.52 70.4148 150.297 68.4884C149.307 66.9258 147.502 66.5013 145.788 66.3073C144.585 66.1658 142.179 65.6604 141.332 66.7783Z" fill="#493545"/>
</g>
<g id="Group_2" opacity="0.5">
<path id="Vector_21" opacity="0.5" d="M140.089 120.922C140.107 121.599 139.646 122.178 139.28 122.742C138.915 123.306 138.644 124.076 139.02 124.64C139.143 124.826 139.329 124.969 139.44 125.163C139.83 125.84 139.181 126.619 138.945 127.363C138.672 128.222 138.989 129.182 139.564 129.879C140.138 130.577 140.93 131.048 141.73 131.462C143.414 132.359 145.22 133.002 147.091 133.37C148.07 133.55 149.113 133.631 150.03 133.239C150.667 132.947 151.187 132.449 151.507 131.826C151.827 131.203 151.929 130.49 151.795 129.802C151.563 128.739 150.784 127.884 150.38 126.879C150.286 126.682 150.24 126.465 150.247 126.247C150.281 125.865 150.574 125.565 150.803 125.256C151.376 124.414 151.609 123.387 151.458 122.38C151.298 121.373 150.912 120.415 150.33 119.578C150.121 119.231 149.847 118.929 149.521 118.689C149.08 118.391 148.535 118.307 148.009 118.232C145.814 117.924 143.54 117.589 141.326 117.476C140.627 117.439 140.113 117.577 139.768 118.232C139.24 119.208 140.063 119.942 140.089 120.922Z" fill="#444176"/>
<path id="Vector_22" opacity="0.5" d="M151.395 127.797L147.229 133.722L143.162 133.368C143.162 133.368 143.028 134.783 141.393 129.655C140.479 126.786 142.337 127.783 142.703 126.989C143.069 126.194 143.714 125.493 143.768 124.906C143.898 123.649 143.516 122.934 143.516 122.934L147.936 122.404C147.737 123 147.712 123.64 147.864 124.25C148.418 126.55 151.395 127.797 151.395 127.797Z" fill="#C77485"/>
<path id="Vector_23" opacity="0.5" d="M145.129 122.746C148.031 122.746 150.385 120.89 150.385 118.602C150.385 116.313 148.031 114.458 145.129 114.458C142.226 114.458 139.873 116.313 139.873 118.602C139.873 120.89 142.226 122.746 145.129 122.746Z" fill="#444176"/>
<path id="Vector_24" opacity="0.1" d="M147.862 124.247C147.285 124.684 146.61 124.972 145.896 125.087C145.182 125.202 144.451 125.14 143.766 124.906C143.896 123.649 143.514 122.934 143.514 122.934L147.935 122.404C147.735 122.999 147.71 123.639 147.862 124.247V124.247Z" fill="black"/>
<path id="Vector_25" opacity="0.5" d="M145.195 124.967C147.637 124.967 149.616 122.988 149.616 120.546C149.616 118.105 147.637 116.125 145.195 116.125C142.754 116.125 140.774 118.105 140.774 120.546C140.774 122.988 142.754 124.967 145.195 124.967Z" fill="#C77485"/>
<path id="Vector_26" opacity="0.1" d="M150.959 128.468L150.856 128.064L150.767 127.708L150.635 127.183L150.611 127.086L150.591 127.005C150.591 127.005 150.696 126.687 150.003 126.79L149.873 126.813C149.764 126.835 149.637 126.865 149.491 126.906L149.36 126.946L149.186 127.001C148.636 127.18 148.134 127.483 147.719 127.886C147.532 128.064 147.367 128.264 147.227 128.48C147.213 128.501 147.203 128.519 147.191 128.535C147.143 128.61 147.101 128.688 147.064 128.769C147.064 130.362 145.471 132.307 145.471 132.307L143.916 130.061L143.886 130.017L143.516 129.479L143.385 129.305L143.34 129.245L142.532 128.159L142.329 127.888L142.263 127.797L142.164 127.666L141.931 127.356L141.022 127.888L139.809 128.596L139.101 133.194V133.322L139.123 133.702L139.271 136.2V136.235L139.012 137.27L139.051 137.29C139.661 137.619 140.296 137.9 140.951 138.131L141.123 138.191C141.325 138.258 141.515 138.319 141.713 138.377C141.72 138.407 141.726 138.438 141.729 138.468C141.729 138.44 141.729 138.41 141.729 138.381C144.21 139.09 146.839 139.09 149.32 138.381L149.366 138.367C149.481 138.335 149.598 138.301 149.712 138.262L149.896 138.204C150.394 138.037 150.883 137.841 151.359 137.617L151.529 133.999L151.65 131.389V131.24L150.959 128.468Z" fill="black"/>
<path id="Vector_27" opacity="0.5" d="M149.502 135.19C149.502 135.109 149.502 135.028 149.488 134.947C149.474 134.866 149.476 134.795 149.466 134.719C149.456 134.642 149.448 134.565 149.438 134.488C149.428 134.411 149.413 134.335 149.399 134.258C149.385 134.181 149.371 134.104 149.355 134.027C149.355 134.001 149.345 133.977 149.339 133.95C149.316 133.849 149.292 133.748 149.266 133.645C149.24 133.542 149.223 133.481 149.199 133.401C149.199 133.364 149.179 133.328 149.167 133.293C149.155 133.259 149.133 133.176 149.114 133.118L149.078 133.004C149.062 132.954 149.046 132.903 149.027 132.853C148.997 132.762 148.965 132.673 148.932 132.582C148.9 132.491 148.866 132.402 148.831 132.313C148.763 132.131 148.688 131.951 148.613 131.771C148.32 131.072 147.99 130.383 147.687 129.699C147.524 129.341 147.38 128.975 147.255 128.602L147.216 128.656C147.155 128.749 147.1 128.847 147.052 128.947C147.052 130.538 145.46 132.485 145.46 132.485L143.857 130.15L142.454 132.307C142.252 132.414 142.049 132.782 141.892 133.306C141.847 133.447 141.805 133.601 141.764 133.764C141.736 133.874 141.71 133.989 141.686 134.104C141.671 134.163 141.659 134.221 141.647 134.282L141.611 134.466V134.494C141.586 134.62 141.562 134.749 141.54 134.88C141.518 135.012 141.491 135.163 141.469 135.307C141.453 135.4 141.439 135.493 141.427 135.586C141.399 135.766 141.374 135.948 141.35 136.128C141.336 136.233 141.322 136.33 141.31 136.441L141.261 136.845C141.364 137.177 141.479 137.504 141.599 137.826C141.675 138.002 141.719 138.19 141.73 138.381C144.211 139.09 146.84 139.09 149.321 138.381C149.32 138.375 149.32 138.368 149.321 138.361C149.283 138.18 149.267 137.995 149.272 137.809V137.809C149.313 137.291 149.38 136.775 149.474 136.263C149.504 136.011 149.517 135.757 149.513 135.503V135.412C149.506 135.335 149.504 135.262 149.502 135.19ZM149.502 135.19C149.502 135.109 149.502 135.028 149.488 134.947C149.474 134.866 149.476 134.795 149.466 134.719C149.456 134.642 149.448 134.565 149.438 134.488C149.428 134.411 149.413 134.335 149.399 134.258C149.385 134.181 149.371 134.104 149.355 134.027C149.355 134.001 149.345 133.977 149.339 133.95C149.316 133.849 149.292 133.748 149.266 133.645C149.24 133.542 149.223 133.481 149.199 133.401C149.199 133.364 149.179 133.328 149.167 133.293C149.155 133.259 149.133 133.176 149.114 133.118L149.078 133.004C149.062 132.954 149.046 132.903 149.027 132.853C148.997 132.762 148.965 132.673 148.932 132.582C148.9 132.491 148.866 132.402 148.831 132.313C148.763 132.131 148.688 131.951 148.613 131.771C148.32 131.072 147.99 130.383 147.687 129.699C147.524 129.341 147.38 128.975 147.255 128.602L147.216 128.656C147.155 128.749 147.1 128.847 147.052 128.947C147.052 130.538 145.46 132.485 145.46 132.485L143.857 130.15L142.454 132.307C142.252 132.414 142.049 132.782 141.892 133.306C141.847 133.447 141.805 133.601 141.764 133.764C141.736 133.874 141.71 133.989 141.686 134.104C141.671 134.163 141.659 134.221 141.647 134.282L141.611 134.466V134.494C141.586 134.62 141.562 134.749 141.54 134.88C141.518 135.012 141.491 135.163 141.469 135.307C141.453 135.4 141.439 135.493 141.427 135.586C141.399 135.766 141.374 135.948 141.35 136.128C141.336 136.233 141.322 136.33 141.31 136.441L141.261 136.845C141.364 137.177 141.479 137.504 141.599 137.826C141.675 138.002 141.719 138.19 141.73 138.381C144.211 139.09 146.84 139.09 149.321 138.381C149.32 138.375 149.32 138.368 149.321 138.361C149.283 138.18 149.267 137.995 149.272 137.809V137.809C149.313 137.291 149.38 136.775 149.474 136.263C149.504 136.011 149.517 135.757 149.513 135.503V135.412C149.506 135.335 149.504 135.262 149.502 135.19ZM149.502 135.19C149.502 135.109 149.502 135.028 149.488 134.947C149.474 134.866 149.476 134.795 149.466 134.719C149.456 134.642 149.448 134.565 149.438 134.488C149.428 134.411 149.413 134.335 149.399 134.258C149.385 134.181 149.371 134.104 149.355 134.027C149.355 134.001 149.345 133.977 149.339 133.95C149.316 133.849 149.292 133.748 149.266 133.645C149.24 133.542 149.223 133.481 149.199 133.401C149.199 133.364 149.179 133.328 149.167 133.293C149.155 133.259 149.133 133.176 149.114 133.118L149.078 133.004C149.062 132.954 149.046 132.903 149.027 132.853C148.997 132.762 148.965 132.673 148.932 132.582C148.9 132.491 148.866 132.402 148.831 132.313C148.763 132.131 148.688 131.951 148.613 131.771C148.32 131.072 147.99 130.383 147.687 129.699C147.524 129.341 147.38 128.975 147.255 128.602L147.216 128.656C147.155 128.749 147.1 128.847 147.052 128.947C147.052 130.538 145.46 132.485 145.46 132.485L143.857 130.15L142.454 132.307C142.252 132.414 142.049 132.782 141.892 133.306C141.847 133.447 141.805 133.601 141.764 133.764C141.736 133.874 141.71 133.989 141.686 134.104C141.671 134.163 141.659 134.221 141.647 134.282L141.611 134.466V134.494C141.586 134.62 141.562 134.749 141.54 134.88C141.518 135.012 141.491 135.163 141.469 135.307C141.453 135.4 141.439 135.493 141.427 135.586C141.399 135.766 141.374 135.948 141.35 136.128C141.336 136.233 141.322 136.33 141.31 136.441L141.261 136.845C141.364 137.177 141.479 137.504 141.599 137.826C141.675 138.002 141.719 138.19 141.73 138.381C144.211 139.09 146.84 139.09 149.321 138.381C149.32 138.375 149.32 138.368 149.321 138.361C149.283 138.18 149.267 137.995 149.272 137.809V137.809C149.313 137.291 149.38 136.775 149.474 136.263C149.504 136.011 149.517 135.757 149.513 135.503V135.412C149.506 135.335 149.504 135.262 149.502 135.19ZM151.645 131.395L150.924 128.515L150.8 128.022L150.766 127.886L150.59 127.183C150.59 127.177 150.59 127.171 150.59 127.164V127.164C150.594 127.133 150.589 127.102 150.576 127.074C150.55 127.021 150.483 126.966 150.327 126.952C150.268 126.948 150.209 126.948 150.149 126.952V126.952C149.974 126.97 149.8 127.002 149.63 127.049C149.547 127.072 149.458 127.096 149.363 127.126L149.189 127.181H149.173C148.707 127.333 148.275 127.574 147.899 127.888C147.651 128.095 147.433 128.336 147.253 128.604L147.214 128.658C147.153 128.751 147.098 128.849 147.05 128.949C147.05 130.54 145.458 132.487 145.458 132.487L143.855 130.152L143.764 130.021L143.747 129.999L143.515 129.657L143.339 129.422L143.293 129.362L142.464 128.256L142.201 127.898V127.886L142.11 127.763L141.936 127.532L141.33 127.886L139.814 128.77L139.114 133.32V133.368L139.134 133.7L139.284 136.233V136.376L139.056 137.288C139.666 137.617 140.302 137.898 140.956 138.129L141.128 138.189C141.33 138.256 141.52 138.317 141.718 138.375C141.725 138.405 141.731 138.436 141.734 138.466C141.734 138.438 141.734 138.408 141.734 138.379C144.215 139.088 146.844 139.088 149.325 138.379L149.371 138.365C149.486 138.333 149.604 138.299 149.717 138.26L149.901 138.202C150.399 138.035 150.888 137.839 151.364 137.615L151.532 134.001L151.653 131.42L151.645 131.395ZM141.704 138.375C141.711 138.405 141.716 138.436 141.72 138.466C141.72 138.438 141.72 138.408 141.72 138.379L141.704 138.375ZM149.502 135.19C149.502 135.109 149.502 135.028 149.488 134.947C149.474 134.866 149.476 134.795 149.466 134.719C149.456 134.642 149.448 134.565 149.438 134.488C149.428 134.411 149.413 134.335 149.399 134.258C149.385 134.181 149.371 134.104 149.355 134.027C149.355 134.001 149.345 133.977 149.339 133.95C149.316 133.849 149.292 133.748 149.266 133.645C149.24 133.542 149.223 133.481 149.199 133.401C149.199 133.364 149.179 133.328 149.167 133.293C149.155 133.259 149.133 133.176 149.114 133.118L149.078 133.004C149.062 132.954 149.046 132.903 149.027 132.853C148.997 132.762 148.965 132.673 148.932 132.582C148.9 132.491 148.866 132.402 148.831 132.313C148.763 132.131 148.688 131.951 148.613 131.771C148.32 131.072 147.99 130.383 147.687 129.699C147.524 129.341 147.38 128.975 147.255 128.602L147.216 128.656C147.155 128.749 147.1 128.847 147.052 128.947C147.052 130.538 145.46 132.485 145.46 132.485L143.857 130.15L142.454 132.307C142.252 132.414 142.049 132.782 141.892 133.306C141.847 133.447 141.805 133.601 141.764 133.764C141.736 133.874 141.71 133.989 141.686 134.104C141.671 134.163 141.659 134.221 141.647 134.282L141.611 134.466V134.494C141.586 134.62 141.562 134.749 141.54 134.88C141.518 135.012 141.491 135.163 141.469 135.307C141.453 135.4 141.439 135.493 141.427 135.586C141.399 135.766 141.374 135.948 141.35 136.128C141.336 136.233 141.322 136.33 141.31 136.441L141.261 136.845C141.364 137.177 141.479 137.504 141.599 137.826C141.675 138.002 141.719 138.19 141.73 138.381C144.211 139.09 146.84 139.09 149.321 138.381C149.32 138.375 149.32 138.368 149.321 138.361C149.283 138.18 149.267 137.995 149.272 137.809V137.809C149.313 137.291 149.38 136.775 149.474 136.263C149.504 136.011 149.517 135.757 149.513 135.503V135.412C149.506 135.335 149.504 135.262 149.502 135.19ZM149.502 135.19C149.502 135.109 149.502 135.028 149.488 134.947C149.474 134.866 149.476 134.795 149.466 134.719C149.456 134.642 149.448 134.565 149.438 134.488C149.428 134.411 149.413 134.335 149.399 134.258C149.385 134.181 149.371 134.104 149.355 134.027C149.355 134.001 149.345 133.977 149.339 133.95C149.316 133.849 149.292 133.748 149.266 133.645C149.24 133.542 149.223 133.481 149.199 133.401C149.199 133.364 149.179 133.328 149.167 133.293C149.155 133.259 149.133 133.176 149.114 133.118L149.078 133.004C149.062 132.954 149.046 132.903 149.027 132.853C148.997 132.762 148.965 132.673 148.932 132.582C148.9 132.491 148.866 132.402 148.831 132.313C148.763 132.131 148.688 131.951 148.613 131.771C148.32 131.072 147.99 130.383 147.687 129.699C147.524 129.341 147.38 128.975 147.255 128.602L147.216 128.656C147.155 128.749 147.1 128.847 147.052 128.947C147.052 130.538 145.46 132.485 145.46 132.485L143.857 130.15L142.454 132.307C142.252 132.414 142.049 132.782 141.892 133.306C141.847 133.447 141.805 133.601 141.764 133.764C141.736 133.874 141.71 133.989 141.686 134.104C141.671 134.163 141.659 134.221 141.647 134.282L141.611 134.466V134.494C141.586 134.62 141.562 134.749 141.54 134.88C141.518 135.012 141.491 135.163 141.469 135.307C141.453 135.4 141.439 135.493 141.427 135.586C141.399 135.766 141.374 135.948 141.35 136.128C141.336 136.233 141.322 136.33 141.31 136.441L141.261 136.845C141.364 137.177 141.479 137.504 141.599 137.826C141.675 138.002 141.719 138.19 141.73 138.381C144.211 139.09 146.84 139.09 149.321 138.381C149.32 138.375 149.32 138.368 149.321 138.361C149.283 138.18 149.267 137.995 149.272 137.809V137.809C149.313 137.291 149.38 136.775 149.474 136.263C149.504 136.011 149.517 135.757 149.513 135.503V135.412C149.506 135.335 149.504 135.262 149.502 135.19ZM149.502 135.19C149.502 135.109 149.502 135.028 149.488 134.947C149.474 134.866 149.476 134.795 149.466 134.719C149.456 134.642 149.448 134.565 149.438 134.488C149.428 134.411 149.413 134.335 149.399 134.258C149.385 134.181 149.371 134.104 149.355 134.027C149.355 134.001 149.345 133.977 149.339 133.95C149.316 133.849 149.292 133.748 149.266 133.645C149.24 133.542 149.223 133.481 149.199 133.401C149.199 133.364 149.179 133.328 149.167 133.293C149.155 133.259 149.133 133.176 149.114 133.118L149.078 133.004C149.062 132.954 149.046 132.903 149.027 132.853C148.997 132.762 148.965 132.673 148.932 132.582C148.9 132.491 148.866 132.402 148.831 132.313C148.763 132.131 148.688 131.951 148.613 131.771C148.32 131.072 147.99 130.383 147.687 129.699C147.524 129.341 147.38 128.975 147.255 128.602L147.216 128.656C147.155 128.749 147.1 128.847 147.052 128.947C147.052 130.538 145.46 132.485 145.46 132.485L143.857 130.15L142.454 132.307C142.252 132.414 142.049 132.782 141.892 133.306C141.847 133.447 141.805 133.601 141.764 133.764C141.736 133.874 141.71 133.989 141.686 134.104C141.671 134.163 141.659 134.221 141.647 134.282L141.611 134.466V134.494C141.586 134.62 141.562 134.749 141.54 134.88C141.518 135.012 141.491 135.163 141.469 135.307C141.453 135.4 141.439 135.493 141.427 135.586C141.399 135.766 141.374 135.948 141.35 136.128C141.336 136.233 141.322 136.33 141.31 136.441L141.261 136.845C141.364 137.177 141.479 137.504 141.599 137.826C141.675 138.002 141.719 138.19 141.73 138.381C144.211 139.09 146.84 139.09 149.321 138.381C149.32 138.375 149.32 138.368 149.321 138.361C149.283 138.18 149.267 137.995 149.272 137.809V137.809C149.313 137.291 149.38 136.775 149.474 136.263C149.504 136.011 149.517 135.757 149.513 135.503V135.412C149.506 135.335 149.504 135.262 149.502 135.19ZM149.502 135.19C149.502 135.109 149.502 135.028 149.488 134.947C149.474 134.866 149.476 134.795 149.466 134.719C149.456 134.642 149.448 134.565 149.438 134.488C149.428 134.411 149.413 134.335 149.399 134.258C149.385 134.181 149.371 134.104 149.355 134.027C149.355 134.001 149.345 133.977 149.339 133.95C149.316 133.849 149.292 133.748 149.266 133.645C149.24 133.542 149.223 133.481 149.199 133.401C149.199 133.364 149.179 133.328 149.167 133.293C149.155 133.259 149.133 133.176 149.114 133.118L149.078 133.004C149.062 132.954 149.046 132.903 149.027 132.853C148.997 132.762 148.965 132.673 148.932 132.582C148.9 132.491 148.866 132.402 148.831 132.313C148.763 132.131 148.688 131.951 148.613 131.771C148.32 131.072 147.99 130.383 147.687 129.699C147.524 129.341 147.38 128.975 147.255 128.602L147.216 128.656C147.155 128.749 147.1 128.847 147.052 128.947C147.052 130.538 145.46 132.485 145.46 132.485L143.857 130.15L142.454 132.307C142.252 132.414 142.049 132.782 141.892 133.306C141.847 133.447 141.805 133.601 141.764 133.764C141.736 133.874 141.71 133.989 141.686 134.104C141.671 134.163 141.659 134.221 141.647 134.282L141.611 134.466V134.494C141.586 134.62 141.562 134.749 141.54 134.88C141.518 135.012 141.491 135.163 141.469 135.307C141.453 135.4 141.439 135.493 141.427 135.586C141.399 135.766 141.374 135.948 141.35 136.128C141.336 136.233 141.322 136.33 141.31 136.441L141.261 136.845C141.364 137.177 141.479 137.504 141.599 137.826C141.675 138.002 141.719 138.19 141.73 138.381C144.211 139.09 146.84 139.09 149.321 138.381C149.32 138.375 149.32 138.368 149.321 138.361C149.283 138.18 149.267 137.995 149.272 137.809V137.809C149.313 137.291 149.38 136.775 149.474 136.263C149.504 136.011 149.517 135.757 149.513 135.503V135.412C149.506 135.335 149.504 135.262 149.502 135.19ZM149.502 135.19C149.502 135.109 149.502 135.028 149.488 134.947C149.474 134.866 149.476 134.795 149.466 134.719C149.456 134.642 149.448 134.565 149.438 134.488C149.428 134.411 149.413 134.335 149.399 134.258C149.385 134.181 149.371 134.104 149.355 134.027C149.355 134.001 149.345 133.977 149.339 133.95C149.316 133.849 149.292 133.748 149.266 133.645C149.24 133.542 149.223 133.481 149.199 133.401C149.199 133.364 149.179 133.328 149.167 133.293C149.155 133.259 149.133 133.176 149.114 133.118L149.078 133.004C149.062 132.954 149.046 132.903 149.027 132.853C148.997 132.762 148.965 132.673 148.932 132.582C148.9 132.491 148.866 132.402 148.831 132.313C148.763 132.131 148.688 131.951 148.613 131.771C148.32 131.072 147.99 130.383 147.687 129.699C147.524 129.341 147.38 128.975 147.255 128.602L147.216 128.656C147.155 128.749 147.1 128.847 147.052 128.947C147.052 130.538 145.46 132.485 145.46 132.485L143.857 130.15L142.454 132.307C142.252 132.414 142.049 132.782 141.892 133.306C141.847 133.447 141.805 133.601 141.764 133.764C141.736 133.874 141.71 133.989 141.686 134.104C141.671 134.163 141.659 134.221 141.647 134.282L141.611 134.466V134.494C141.586 134.62 141.562 134.749 141.54 134.88C141.518 135.012 141.491 135.163 141.469 135.307C141.453 135.4 141.439 135.493 141.427 135.586C141.399 135.766 141.374 135.948 141.35 136.128C141.336 136.233 141.322 136.33 141.31 136.441L141.261 136.845C141.364 137.177 141.479 137.504 141.599 137.826C141.675 138.002 141.719 138.19 141.73 138.381C144.211 139.09 146.84 139.09 149.321 138.381C149.32 138.375 149.32 138.368 149.321 138.361C149.283 138.18 149.267 137.995 149.272 137.809V137.809C149.313 137.291 149.38 136.775 149.474 136.263C149.504 136.011 149.517 135.757 149.513 135.503V135.412C149.506 135.335 149.504 135.262 149.502 135.19ZM149.502 135.19C149.502 135.109 149.502 135.028 149.488 134.947C149.474 134.866 149.476 134.795 149.466 134.719C149.456 134.642 149.448 134.565 149.438 134.488C149.428 134.411 149.413 134.335 149.399 134.258C149.385 134.181 149.371 134.104 149.355 134.027C149.355 134.001 149.345 133.977 149.339 133.95C149.316 133.849 149.292 133.748 149.266 133.645C149.24 133.542 149.223 133.481 149.199 133.401C149.199 133.364 149.179 133.328 149.167 133.293C149.155 133.259 149.133 133.176 149.114 133.118L149.078 133.004C149.062 132.954 149.046 132.903 149.027 132.853C148.997 132.762 148.965 132.673 148.932 132.582C148.9 132.491 148.866 132.402 148.831 132.313C148.763 132.131 148.688 131.951 148.613 131.771C148.32 131.072 147.99 130.383 147.687 129.699C147.524 129.341 147.38 128.975 147.255 128.602L147.216 128.656C147.155 128.749 147.1 128.847 147.052 128.947C147.052 130.538 145.46 132.485 145.46 132.485L143.857 130.15L142.454 132.307C142.252 132.414 142.049 132.782 141.892 133.306C141.847 133.447 141.805 133.601 141.764 133.764C141.736 133.874 141.71 133.989 141.686 134.104C141.671 134.163 141.659 134.221 141.647 134.282L141.611 134.466V134.494C141.586 134.62 141.562 134.749 141.54 134.88C141.518 135.012 141.491 135.163 141.469 135.307C141.453 135.4 141.439 135.493 141.427 135.586C141.399 135.766 141.374 135.948 141.35 136.128C141.336 136.233 141.322 136.33 141.31 136.441L141.261 136.845C141.364 137.177 141.479 137.504 141.599 137.826C141.675 138.002 141.719 138.19 141.73 138.381C144.211 139.09 146.84 139.09 149.321 138.381C149.32 138.375 149.32 138.368 149.321 138.361C149.283 138.18 149.267 137.995 149.272 137.809V137.809C149.313 137.291 149.38 136.775 149.474 136.263C149.504 136.011 149.517 135.757 149.513 135.503V135.412C149.506 135.335 149.504 135.262 149.502 135.19ZM149.502 135.19C149.502 135.109 149.502 135.028 149.488 134.947C149.474 134.866 149.476 134.795 149.466 134.719C149.456 134.642 149.448 134.565 149.438 134.488C149.428 134.411 149.413 134.335 149.399 134.258C149.385 134.181 149.371 134.104 149.355 134.027C149.355 134.001 149.345 133.977 149.339 133.95C149.316 133.849 149.292 133.748 149.266 133.645C149.24 133.542 149.223 133.481 149.199 133.401C149.199 133.364 149.179 133.328 149.167 133.293C149.155 133.259 149.133 133.176 149.114 133.118L149.078 133.004C149.062 132.954 149.046 132.903 149.027 132.853C148.997 132.762 148.965 132.673 148.932 132.582C148.9 132.491 148.866 132.402 148.831 132.313C148.763 132.131 148.688 131.951 148.613 131.771C148.32 131.072 147.99 130.383 147.687 129.699C147.524 129.341 147.38 128.975 147.255 128.602L147.216 128.656C147.155 128.749 147.1 128.847 147.052 128.947C147.052 130.538 145.46 132.485 145.46 132.485L143.857 130.15L142.454 132.307C142.252 132.414 142.049 132.782 141.892 133.306C141.847 133.447 141.805 133.601 141.764 133.764C141.736 133.874 141.71 133.989 141.686 134.104C141.671 134.163 141.659 134.221 141.647 134.282L141.611 134.466V134.494C141.586 134.62 141.562 134.749 141.54 134.88C141.518 135.012 141.491 135.163 141.469 135.307C141.453 135.4 141.439 135.493 141.427 135.586C141.399 135.766 141.374 135.948 141.35 136.128C141.336 136.233 141.322 136.33 141.31 136.441L141.261 136.845C141.364 137.177 141.479 137.504 141.599 137.826C141.675 138.002 141.719 138.19 141.73 138.381C144.211 139.09 146.84 139.09 149.321 138.381C149.32 138.375 149.32 138.368 149.321 138.361C149.283 138.18 149.267 137.995 149.272 137.809V137.809C149.313 137.291 149.38 136.775 149.474 136.263C149.504 136.011 149.517 135.757 149.513 135.503V135.412C149.506 135.335 149.504 135.262 149.502 135.19ZM149.502 135.19C149.502 135.109 149.502 135.028 149.488 134.947C149.474 134.866 149.476 134.795 149.466 134.719C149.456 134.642 149.448 134.565 149.438 134.488C149.428 134.411 149.413 134.335 149.399 134.258C149.385 134.181 149.371 134.104 149.355 134.027C149.355 134.001 149.345 133.977 149.339 133.95C149.316 133.849 149.292 133.748 149.266 133.645C149.24 133.542 149.223 133.481 149.199 133.401C149.199 133.364 149.179 133.328 149.167 133.293C149.155 133.259 149.133 133.176 149.114 133.118L149.078 133.004C149.062 132.954 149.046 132.903 149.027 132.853C148.997 132.762 148.965 132.673 148.932 132.582C148.9 132.491 148.866 132.402 148.831 132.313C148.763 132.131 148.688 131.951 148.613 131.771C148.32 131.072 147.99 130.383 147.687 129.699C147.524 129.341 147.38 128.975 147.255 128.602L147.216 128.656C147.155 128.749 147.1 128.847 147.052 128.947C147.052 130.538 145.46 132.485 145.46 132.485L143.857 130.15L142.454 132.307C142.252 132.414 142.049 132.782 141.892 133.306C141.847 133.447 141.805 133.601 141.764 133.764C141.736 133.874 141.71 133.989 141.686 134.104C141.671 134.163 141.659 134.221 141.647 134.282L141.611 134.466V134.494C141.586 134.62 141.562 134.749 141.54 134.88C141.518 135.012 141.491 135.163 141.469 135.307C141.453 135.4 141.439 135.493 141.427 135.586C141.399 135.766 141.374 135.948 141.35 136.128C141.336 136.233 141.322 136.33 141.31 136.441L141.261 136.845C141.364 137.177 141.479 137.504 141.599 137.826C141.675 138.002 141.719 138.19 141.73 138.381C144.211 139.09 146.84 139.09 149.321 138.381C149.32 138.375 149.32 138.368 149.321 138.361C149.283 138.18 149.267 137.995 149.272 137.809V137.809C149.313 137.291 149.38 136.775 149.474 136.263C149.504 136.011 149.517 135.757 149.513 135.503V135.412C149.506 135.335 149.504 135.262 149.502 135.19Z" fill="#444176"/>
<path id="Vector_28" opacity="0.1" d="M143.886 130.015L143.75 129.997C143.546 129.969 143.343 129.928 143.144 129.875L143.069 129.855C142.576 129.716 142.036 129.465 141.915 129.024C141.879 128.882 141.883 128.733 141.927 128.594C141.995 128.353 142.087 128.12 142.202 127.898V127.886C142.217 127.855 142.234 127.825 142.252 127.795C142.419 127.469 142.671 127.195 142.982 127.001L142.739 127.039L140.686 127.373L137.502 127.886C137.502 127.886 136.936 127.773 136.166 129.895C136.166 129.922 136.147 129.946 136.139 129.974C135.953 130.494 135.757 131.143 135.555 131.953C135.416 132.515 135.288 133.067 135.171 133.603C135.137 133.764 135.102 133.924 135.07 134.082C135.435 134.511 135.827 134.917 136.245 135.295L136.311 135.357C137.129 136.098 138.033 136.738 139.004 137.264L139.042 137.284C139.653 137.613 140.288 137.894 140.942 138.125L141.114 138.185C141.151 137.811 141.191 137.397 141.239 136.972C141.239 136.93 141.239 136.888 141.256 136.845L141.304 136.441C141.316 136.338 141.33 136.239 141.345 136.128C141.369 135.948 141.393 135.766 141.421 135.586C141.434 135.493 141.448 135.4 141.464 135.307C141.486 135.163 141.51 135.02 141.535 134.88C141.559 134.741 141.581 134.62 141.605 134.494V134.466L141.642 134.282C141.654 134.221 141.666 134.163 141.68 134.104C141.704 133.989 141.731 133.874 141.759 133.764C141.799 133.601 141.842 133.447 141.886 133.306C142.048 132.782 142.236 132.414 142.448 132.307L143.851 130.15L143.91 130.059L143.936 130.019L143.886 130.015Z" fill="black"/>
<path id="Vector_29" opacity="0.1" d="M144.223 119.252C144.853 119.145 145.488 118.915 146.115 119.05C146.64 119.16 147.079 119.509 147.56 119.752C148.025 119.985 148.533 120.12 149.052 120.146C149.241 120.171 149.434 120.133 149.6 120.039C149.85 119.865 149.887 119.509 149.844 119.206C149.723 118.345 149.185 117.605 148.631 116.934C148.41 116.647 148.155 116.389 147.871 116.164C147.146 115.628 146.186 115.537 145.286 115.578C144.259 115.624 143.216 115.822 142.325 116.338C141.718 116.685 140.327 117.781 140.811 118.573C141.318 119.402 143.428 119.388 144.223 119.252Z" fill="black"/>
<path id="Vector_30" opacity="0.5" d="M144.223 119.05C144.853 118.943 145.488 118.713 146.115 118.848C146.64 118.957 147.079 119.307 147.56 119.55C148.025 119.783 148.533 119.917 149.052 119.944C149.241 119.969 149.434 119.931 149.6 119.837C149.85 119.663 149.887 119.307 149.844 119.004C149.723 118.143 149.185 117.403 148.631 116.732C148.41 116.445 148.155 116.186 147.871 115.962C147.146 115.426 146.186 115.335 145.286 115.375C144.259 115.422 143.216 115.62 142.325 116.135C141.718 116.483 140.327 117.579 140.811 118.371C141.318 119.2 143.428 119.186 144.223 119.05Z" fill="#444176"/>
</g>
<path id="Vector_31" d="M146.037 35.5604L150.353 32.2252C150.353 32.2252 147.461 32.8464 147.544 28.2166C147.543 28.2012 147.543 28.1858 147.544 28.1704C147.544 27.7522 147.584 27.2939 147.644 26.7893C148.384 20.6115 142.465 26.0475 142.465 26.0475C142.516 26.5944 142.516 27.145 142.465 27.6919C142.465 27.706 142.465 27.7221 142.465 27.7361C142.348 29.2585 141.929 30.7423 141.233 32.1006C139.626 35.1884 146.037 35.5604 146.037 35.5604Z" fill="#FDC2CC"/>
<path id="Vector_32" opacity="0.1" d="M142.727 26.8774C143.491 27.6015 143.958 28.9172 145.107 28.9172C145.939 28.919 146.753 28.6812 147.446 28.2339C147.446 27.8096 147.488 27.3445 147.551 26.8325C148.323 20.5643 142.147 26.0799 142.147 26.0799C142.147 26.0799 142.808 25.8575 142.727 26.8774Z" fill="black"/>
<path id="Vector_33" d="M145.077 28.5264C147.344 28.5264 149.181 26.6894 149.181 24.4233C149.181 22.1572 147.344 20.3202 145.077 20.3202C142.811 20.3202 140.974 22.1572 140.974 24.4233C140.974 26.6894 142.811 28.5264 145.077 28.5264Z" fill="#FDC2CC"/>
<path id="Vector_34" opacity="0.1" d="M148.932 19.167C148.697 18.8669 148.426 18.5981 148.124 18.3668C147.65 17.9687 147.125 17.5502 146.536 17.587C146.203 17.6317 145.884 17.7472 145.598 17.9258C144.132 18.7057 142.917 17.9687 141.212 20.2877C140.848 20.7838 140.118 20.9001 139.742 21.4207C139.366 21.9413 139.214 22.6251 139.107 23.2906C139.019 23.7408 138.998 24.2018 139.045 24.6583C139.09 25.1064 139.307 25.5186 139.651 25.8056C140.044 26.0934 140.583 26.0955 140.913 26.4731C141.079 26.7191 141.215 26.9844 141.317 27.2632C141.451 27.5285 141.685 27.7796 141.952 27.7408C142.219 27.7021 142.379 27.4101 142.417 27.1284C142.434 26.8369 142.417 26.5443 142.367 26.2568C142.316 25.7403 142.381 25.1769 142.682 24.787C142.884 24.5195 143.188 24.3603 143.388 24.0888C143.869 23.4335 143.651 22.3332 144.179 21.7249C144.333 21.5649 144.527 21.449 144.74 21.3892C144.953 21.3293 145.178 21.3275 145.392 21.384C145.817 21.5064 146.225 21.6834 146.605 21.9106C147.136 22.1812 147.692 22.3979 148.265 22.5578C148.746 22.6904 149.304 23.0089 149.468 22.3536C149.725 21.3901 149.484 19.9366 148.932 19.167Z" fill="black"/>
<path id="Vector_35" d="M148.932 19.1062C148.697 18.8176 148.426 18.5591 148.124 18.3367C147.65 17.9539 147.125 17.5516 146.536 17.5869C146.203 17.6299 145.884 17.741 145.598 17.9127C144.132 18.6625 142.917 17.9539 141.212 20.1838C140.848 20.6607 140.118 20.7726 139.742 21.2732C139.366 21.7737 139.214 22.4313 139.107 23.0712C139.019 23.504 138.998 23.9473 139.045 24.3863C139.09 24.8171 139.307 25.2134 139.651 25.4894C140.044 25.7662 140.583 25.7681 140.913 26.1313C141.079 26.3678 141.215 26.6229 141.317 26.8909C141.451 27.1461 141.685 27.3875 141.952 27.3502C142.219 27.3129 142.379 27.0322 142.417 26.7614C142.434 26.481 142.417 26.1997 142.367 25.9232C142.316 25.4266 142.381 24.8849 142.682 24.5099C142.884 24.2528 143.188 24.0997 143.388 23.8386C143.869 23.2086 143.651 22.1506 144.179 21.5656C144.333 21.4118 144.527 21.3004 144.74 21.2428C144.953 21.1852 145.178 21.1835 145.392 21.2378C145.817 21.3556 146.225 21.5258 146.605 21.7443C147.136 22.0044 147.692 22.2128 148.265 22.3665C148.746 22.4941 149.304 22.8003 149.468 22.1702C149.725 21.2437 149.484 19.8462 148.932 19.1062Z" fill="#865A61"/>
<path id="Vector_36" opacity="0.1" d="M140.93 37.7801L140.848 40.9349C142.04 41.2596 143.27 41.4234 144.505 41.422C144.711 41.422 144.926 41.422 145.135 41.4077C146.231 41.3604 147.317 41.1824 148.37 40.8774H148.391C148.585 40.8199 148.778 40.7603 148.969 40.6945H148.99L149.164 40.6328C149.828 40.3985 150.473 40.1127 151.092 39.7778L151.131 39.7573C151.199 39.7203 151.266 39.6833 151.336 39.6442L151.018 35.3919L151.525 32.4755L148.752 30.5826C148.596 30.8079 148.422 31.0196 148.231 31.2156C147.957 31.5021 147.636 31.7398 147.283 31.9185C145.293 32.9009 143.028 31.3389 141.902 30.373L141.646 30.1448C141.355 29.8797 141.188 29.6989 141.188 29.6989L139.802 31.8445L140.93 37.7801Z" fill="black"/>
<path id="Vector_37" d="M140.93 37.9015L140.848 40.9512C142.04 41.2649 143.27 41.4233 144.505 41.422C144.711 41.422 144.926 41.422 145.135 41.4081C146.231 41.3624 147.317 41.1903 148.37 40.8955H148.391C148.585 40.8399 148.778 40.7823 148.969 40.7187H148.99L149.164 40.6591C149.828 40.4326 150.473 40.1563 151.092 39.8326L151.131 39.8128C151.199 39.777 151.266 39.7412 151.336 39.7035L151.018 35.5929L151.525 32.7737L148.752 30.9439C148.596 31.1616 148.422 31.3663 148.231 31.5558C147.957 31.8328 147.636 32.0625 147.283 32.2353C145.293 33.185 143.028 31.675 141.902 30.7413L141.646 30.5207C141.355 30.2644 141.188 30.0896 141.188 30.0896L139.802 32.1638L140.93 37.9015Z" fill="#53526B"/>
<path id="Vector_38" d="M148.489 38.097C148.489 38.097 148.641 39.2556 148.84 40.6404H148.861L149.035 40.5814C149.699 40.3572 150.344 40.0836 150.963 39.7631L151.002 39.7434C151.07 39.708 151.138 39.6726 151.208 39.6352C152.117 39.1458 152.966 38.5598 153.739 37.8884L153.807 37.8275C154.231 37.4595 154.629 37.0653 154.999 36.6472L155.042 36.598C154.31 34.1608 152.785 33.3936 152.785 33.3936C152.785 33.3936 151.398 32.7878 151.019 31.9419C150.639 31.0961 147.289 29.308 147.289 29.308V29.3218C147.289 29.4732 147.236 30.86 147.156 32.2547C147.104 33.1615 147.041 34.0723 146.967 34.6506C146.951 34.8385 146.915 35.0243 146.86 35.2053C146.6 35.8014 148.489 38.097 148.489 38.097Z" fill="#555388"/>
<path id="Vector_39" d="M226.158 135.829C252.664 165.142 175.826 207.387 113.74 207.387C51.6529 207.387 8.69847 174.655 1.32153 135.829C-16.565 41.6894 153.719 -18.1452 113.74 64.2709C55.4647 184.402 205.283 112.744 226.158 135.829Z" fill="#3F3D56"/>
<path id="Vector_40" d="M138.611 110.776C144.088 110.776 148.529 106.335 148.529 100.858C148.529 95.38 144.088 90.9395 138.611 90.9395C133.133 90.9395 128.692 95.38 128.692 100.858C128.692 106.335 133.133 110.776 138.611 110.776Z" fill="#E6E6E6"/>
<path id="Vector_41" d="M37.065 67.1025C18.4655 66.2836 4.04432 62.2715 4.23378 57.9686C4.34737 55.3889 9.61119 53.3144 18.6755 52.2774C18.7079 52.2735 18.7408 52.276 18.7723 52.2849C18.8038 52.2937 18.8332 52.3087 18.8588 52.3289C18.8845 52.3492 18.9059 52.3743 18.9218 52.4028C18.9377 52.4314 18.9478 52.4628 18.9515 52.4952C18.9552 52.5277 18.9524 52.5606 18.9434 52.592C18.9343 52.6234 18.9192 52.6527 18.8988 52.6782C18.8783 52.7037 18.8531 52.7249 18.8244 52.7407C18.7958 52.7564 18.7643 52.7663 18.7318 52.7698C10.1932 53.7467 4.82761 55.7472 4.72883 57.9904C4.55751 61.8815 19.3756 65.8276 37.0868 66.6074C54.7979 67.3873 69.9055 64.7588 70.0768 60.8677C70.176 58.615 64.9736 56.1438 56.4996 54.4186C56.4676 54.4122 56.4372 54.3996 56.4102 54.3814C56.3831 54.3632 56.3599 54.3399 56.3419 54.3127C56.3238 54.2856 56.3114 54.2551 56.3051 54.2231C56.2989 54.1911 56.299 54.1582 56.3055 54.1262C56.312 54.0943 56.3248 54.064 56.343 54.0369C56.3613 54.0099 56.3847 53.9868 56.4119 53.9688C56.4391 53.9509 56.4696 53.9385 56.5016 53.9323C56.5336 53.9262 56.5665 53.9264 56.5985 53.933C65.5928 55.7642 70.6859 58.2997 70.5719 60.8895C70.3824 65.1924 55.6644 67.9214 37.065 67.1025Z" fill="#F9A826"/>
<path id="Vector_42" d="M20.5459 67.8231C22.1019 70.7789 24.4068 73.2743 27.23 75.0595C30.0532 76.8448 33.2958 77.8573 36.6332 77.9959C39.9707 78.1344 43.286 77.394 46.2474 75.8489C49.2089 74.3037 51.7126 72.0079 53.5082 69.1913C42.504 69.3396 31.5 68.8828 20.5459 67.8231V67.8231Z" fill="#F9A826"/>
<path id="Vector_43" d="M55.5654 63.9793C56.5019 61.1705 56.7717 58.1824 56.3536 55.2513C55.9354 52.3202 54.8408 49.5267 53.1564 47.0918C51.472 44.6569 49.2439 42.6475 46.6486 41.2226C44.0533 39.7977 41.1619 38.9964 38.2034 38.8821C35.2448 38.7679 32.3003 39.3438 29.6028 40.5643C26.9053 41.7848 24.529 43.6164 22.6618 45.9142C20.7946 48.2119 19.4878 50.9127 18.8449 53.8028C18.2019 56.6929 18.2405 59.693 18.9575 62.5656C31.0477 64.618 43.353 65.0932 55.5654 63.9793V63.9793Z" fill="#F9A826"/>
<path id="Vector_44" d="M41.832 51.1895C43.0635 51.1895 44.0619 50.1911 44.0619 48.9595C44.0619 47.728 43.0635 46.7296 41.832 46.7296C40.6004 46.7296 39.6021 47.728 39.6021 48.9595C39.6021 50.1911 40.6004 51.1895 41.832 51.1895Z" fill="white"/>
<path id="Vector_45" d="M30.3552 59.8591C32.4078 59.8591 34.0718 58.1952 34.0718 56.1426C34.0718 54.09 32.4078 52.426 30.3552 52.426C28.3026 52.426 26.6387 54.09 26.6387 56.1426C26.6387 58.1952 28.3026 59.8591 30.3552 59.8591Z" fill="white"/>
<path id="Vector_46" d="M86.4479 56.2186C87.8162 56.2186 88.9255 55.1093 88.9255 53.7409C88.9255 52.3726 87.8162 51.2633 86.4479 51.2633C85.0795 51.2633 83.9702 52.3726 83.9702 53.7409C83.9702 55.1093 85.0795 56.2186 86.4479 56.2186Z" fill="#F9A826"/>
<path id="Vector_47" d="M30.4522 132.036C31.2733 132.036 31.9389 131.371 31.9389 130.55C31.9389 129.729 31.2733 129.063 30.4522 129.063C29.6312 129.063 28.9656 129.729 28.9656 130.55C28.9656 131.371 29.6312 132.036 30.4522 132.036Z" fill="#E6E6E6"/>
<path id="Vector_48" d="M134.515 183.077C135.336 183.077 136.002 182.411 136.002 181.59C136.002 180.769 135.336 180.104 134.515 180.104C133.694 180.104 133.029 180.769 133.029 181.59C133.029 182.411 133.694 183.077 134.515 183.077Z" fill="#E6E6E6"/>
<path id="Vector_49" d="M37.6374 103.295C38.0479 103.295 38.3807 102.962 38.3807 102.552C38.3807 102.141 38.0479 101.808 37.6374 101.808C37.2268 101.808 36.894 102.141 36.894 102.552C36.894 102.962 37.2268 103.295 37.6374 103.295Z" fill="#E6E6E6"/>
<path id="Vector_50" d="M99.0844 158.795C99.4949 158.795 99.8277 158.463 99.8277 158.052C99.8277 157.642 99.4949 157.309 99.0844 157.309C98.6739 157.309 98.3411 157.642 98.3411 158.052C98.3411 158.463 98.6739 158.795 99.0844 158.795Z" fill="#E6E6E6"/>
<path id="Vector_51" d="M210.829 151.61C211.239 151.61 211.572 151.277 211.572 150.867C211.572 150.456 211.239 150.123 210.829 150.123C210.418 150.123 210.085 150.456 210.085 150.867C210.085 151.277 210.418 151.61 210.829 151.61Z" fill="#E6E6E6"/>
<path id="Vector_52" d="M175.893 173.662C176.304 173.662 176.636 173.329 176.636 172.918C176.636 172.508 176.304 172.175 175.893 172.175C175.482 172.175 175.15 172.508 175.15 172.918C175.15 173.329 175.482 173.662 175.893 173.662Z" fill="#E6E6E6"/>
<path id="Vector_53" d="M139.471 146.902C139.881 146.902 140.214 146.57 140.214 146.159C140.214 145.749 139.881 145.416 139.471 145.416C139.06 145.416 138.728 145.749 138.728 146.159C138.728 146.57 139.06 146.902 139.471 146.902Z" fill="#E6E6E6"/>
<path id="Vector_54" d="M92.3947 73.5625C92.8052 73.5625 93.138 73.2297 93.138 72.8191C93.138 72.4086 92.8052 72.0758 92.3947 72.0758C91.9842 72.0758 91.6514 72.4086 91.6514 72.8191C91.6514 73.2297 91.9842 73.5625 92.3947 73.5625Z" fill="#E6E6E6"/>
<path id="Vector_55" d="M98.341 36.8924C98.7515 36.8924 99.0843 36.5596 99.0843 36.1491C99.0843 35.7386 98.7515 35.4058 98.341 35.4058C97.9305 35.4058 97.5977 35.7386 97.5977 36.1491C97.5977 36.5596 97.9305 36.8924 98.341 36.8924Z" fill="#E6E6E6"/>
<path id="Vector_56" d="M94.8722 191.253C95.2828 191.253 95.6156 190.92 95.6156 190.51C95.6156 190.099 95.2828 189.767 94.8722 189.767C94.4617 189.767 94.1289 190.099 94.1289 190.51C94.1289 190.92 94.4617 191.253 94.8722 191.253Z" fill="#E6E6E6"/>
<path id="Vector_57" d="M58.2023 175.644C58.6128 175.644 58.9456 175.311 58.9456 174.9C58.9456 174.49 58.6128 174.157 58.2023 174.157C57.7918 174.157 57.459 174.49 57.459 174.9C57.459 175.311 57.7918 175.644 58.2023 175.644Z" fill="#E6E6E6"/>
<path id="Vector_58" d="M174.406 148.885C174.817 148.885 175.15 148.552 175.15 148.141C175.15 147.731 174.817 147.398 174.406 147.398C173.996 147.398 173.663 147.731 173.663 148.141C173.663 148.552 173.996 148.885 174.406 148.885Z" fill="#E6E6E6"/>
<path id="Vector_59" d="M36.7624 76.2633C37.994 76.2633 38.9923 75.265 38.9923 74.0334C38.9923 72.8018 37.994 71.8035 36.7624 71.8035C35.5308 71.8035 34.5325 72.8018 34.5325 74.0334C34.5325 75.265 35.5308 76.2633 36.7624 76.2633Z" fill="white"/>
<path id="Vector_60" d="M87.1913 108.25C87.1913 114.91 76.8942 130.43 73.8849 134.823C73.7941 134.956 73.6723 135.064 73.5301 135.139C73.3878 135.214 73.2293 135.254 73.0685 135.254C72.9076 135.254 72.7491 135.214 72.6069 135.139C72.4646 135.064 72.3428 134.956 72.252 134.823C69.2427 130.43 58.9456 114.91 58.9456 108.25C58.9456 106.396 59.3109 104.559 60.0206 102.846C60.7303 101.132 61.7706 99.5754 63.0821 98.2639C64.3935 96.9525 65.9504 95.9122 67.6639 95.2025C69.3773 94.4927 71.2138 94.1274 73.0685 94.1274C74.9231 94.1274 76.7596 94.4927 78.4731 95.2025C80.1865 95.9122 81.7434 96.9525 83.0548 98.2639C84.3663 99.5754 85.4066 101.132 86.1163 102.846C86.8261 104.559 87.1913 106.396 87.1913 108.25V108.25Z" fill="white"/>
<path id="Vector_61" d="M73.0684 114.445C77.0367 114.445 80.2537 111.228 80.2537 107.259C80.2537 103.291 77.0367 100.074 73.0684 100.074C69.1 100.074 65.8831 103.291 65.8831 107.259C65.8831 111.228 69.1 114.445 73.0684 114.445Z" fill="#F9A826"/>
<path id="Vector_62" d="M72.9443 142.938C77.5285 142.938 81.2446 142.217 81.2446 141.328C81.2446 140.438 77.5285 139.717 72.9443 139.717C68.3602 139.717 64.644 140.438 64.644 141.328C64.644 142.217 68.3602 142.938 72.9443 142.938Z" fill="white"/>
<path id="Vector_63" d="M117.205 128.317C118.608 127.417 116.902 122.252 113.394 116.78C109.886 111.308 105.905 107.601 104.502 108.501C103.099 109.4 104.805 114.565 108.313 120.037C111.821 125.51 115.802 129.216 117.205 128.317Z" fill="#3F3D56"/>
<text id="John Doe&#226;&#128;&#153;s MYTY" fill="black" xml:space="preserve" style="white-space: pre" font-family="Poppins" font-size="6" font-weight="500" letter-spacing="0em"><tspan x="176.165" y="26.9171">John Doe&#x2019;s MYTY</tspan></text>
</g>
<defs>
<linearGradient id="paint0_linear" x1="186.695" y1="152.794" x2="186.695" y2="0" gradientUnits="userSpaceOnUse">
<stop stop-color="#808080" stop-opacity="0.25"/>
<stop offset="0.54" stop-color="#808080" stop-opacity="0.12"/>
<stop offset="1" stop-color="#808080" stop-opacity="0.1"/>
</linearGradient>
<linearGradient id="paint1_linear" x1="7643.65" y1="12515" x2="7643.65" y2="9554.37" gradientUnits="userSpaceOnUse">
<stop stop-color="#808080" stop-opacity="0.25"/>
<stop offset="0.54" stop-color="#808080" stop-opacity="0.12"/>
<stop offset="1" stop-color="#808080" stop-opacity="0.1"/>
</linearGradient>
</defs>
</svg>
